<?xml version="1.0" standalone="no"?>
<!DOCTYPE svg PUBLIC "-//W3C//DTD SVG 1.1//EN" "http://www.w3.org/Graphics/SVG/1.1/DTD/svg11.dtd" >
<svg>
<metadata>
Created by FontForge 20090914 at Wed Dec 28 09:55:43 2022
 By www-data
Din Studio
</metadata>
<defs>
<font id="Miracle-Regular" horiz-adv-x="406" >
  <font-face 
    font-family="Miracle"
    font-weight="400"
    font-stretch="normal"
    units-per-em="1000"
    panose-1="0 0 0 0 0 0 0 0 0 0"
    ascent="800"
    descent="-200"
    x-height="488"
    cap-height="878.999"
    bbox="-1180.13 -304.001 1236.62 1102"
    underline-thickness="50"
    underline-position="-75"
    unicode-range="U+0020-U+E032"
  />
<missing-glyph horiz-adv-x="250" 
 />
    <glyph glyph-name=".notdef" horiz-adv-x="250" 
 />
    <glyph glyph-name=".null" horiz-adv-x="0" 
 />
    <glyph glyph-name=".null" horiz-adv-x="0" 
 />
    <glyph glyph-name="space" unicode=" " horiz-adv-x="250" 
 />
    <glyph glyph-name="exclam" unicode="!" horiz-adv-x="379" 
d="M177 88l4.00098 -0.00195312c15.333 0 28 -3.66699 38 -11s14.333 -16.666 13 -27.999v-3c-2 -12 -9.83301 -22.5 -23.5 -31.5s-28.834 -13.833 -45.501 -14.5h-4c-15.333 0 -28 3.83301 -38 11.5s-14.667 16.834 -14 27.501v2c2 12.667 9.83301 23.5 23.5 32.5
s29.167 13.833 46.5 14.5zM654.001 894.998c22.667 0 37.001 -4.33203 43.001 -12.999c-40.667 -40.667 -98 -120.167 -172 -238.5s-138.5 -228.5 -193.5 -330.5s-83.167 -159.667 -84.5 -173c0 -1.33301 0.333008 -2 1 -2h1c-2.66699 -0.666992 -6.33398 -1 -11.001 -1h-7
l-10 -2c-6.66699 -1.33301 -12.334 -2 -17.001 -2c-7.33301 0 -13.166 1.66699 -17.499 5s-6.16602 9 -5.49902 17c0.666992 5.33301 2.66699 12.666 6 21.999l148 324c43.333 90.667 77.666 159.5 102.999 206.5s48 84.5 68 112.5s34.167 45.333 42.5 52
s16.833 11.667 25.5 15c1.33301 0.666992 2.83301 1.16699 4.5 1.5s3.16699 0.5 4.5 0.5c25.333 4 49 6 71 6z" />
    <glyph glyph-name="quotedbl" unicode="&#x22;" horiz-adv-x="384" 
d="M654 958h5.00098c18 0 27 -9.66699 27 -29c0 -25.333 -14 -50.666 -42 -75.999s-52.667 -40 -74 -44c-2.66699 0 -4.33398 1.16699 -5.00098 3.5s0 4.16602 2 5.49902c12 6 23.5 15 34.5 27s19.167 22.333 24.5 31l7 14c-4.66699 -4.66699 -11 -7 -19 -7
c-0.666992 0 -1.66699 0.166992 -3 0.5s-2.33301 0.5 -3 0.5c-10.667 2 -13 12 -7 30c8 22 22.333 36 43 42zM755.001 959l4.00098 0.000976562c16 0 24 -9 24 -27c-0.666992 -21.333 -13 -43 -37 -65c-24.667 -23.333 -46.334 -36 -65.001 -38
c-2 0 -3.33301 1.16699 -4 3.5s0 3.83301 2 4.5c10.667 5.33301 20.834 13.166 30.501 23.499s16.5 19.5 20.5 27.5l7 12c-4.66699 -4 -12 -6 -22 -6c-9.33301 2 -11 11.333 -5 28c7.33301 20.667 20.666 32.667 39.999 36c2 0.666992 3.66699 1 5 1z" />
    <glyph glyph-name="numbersign" unicode="#" horiz-adv-x="516" 
d="M629 641c0 -3.33301 -29.666 -61.0039 -88.999 -173.004l50 -2c-8.66699 -47.333 -22.667 -73.666 -42 -78.999c-2 -0.666992 -5.66699 -1 -11 -1c-2 0 -6.5 0.166992 -13.5 0.5s-12.833 0.5 -17.5 0.5h-8l-63 -121l50 -1c-7.33301 -36.667 -20.666 -57.667 -39.999 -63
c-8.66699 -2.66699 -22 -4.66699 -40 -6c-2.66699 -4.66699 -6 -11.667 -10 -21c-0.666992 -1.33301 -1.66699 -3.5 -3 -6.5s-2.33301 -5.16699 -3 -6.5c-0.666992 -2 -2 -5.16699 -4 -9.5s-3.66699 -7.5 -5 -9.5c-4.66699 -12 -7.33398 -18.333 -8.00098 -19l-14 -30
l-4 -11l-37 -83h-10h-5c-4.66699 0 -12 1.33301 -22 4s-21.333 9.33398 -34 20.001s-19 23.667 -19 39v6l30 67l12 24.5l16 32.5c-9.33301 0 -23.5 0.166992 -42.5 0.5s-33.5 0.5 -43.5 0.5c-0.666992 -2 -2 -5.16699 -4 -9.5s-3.66699 -7.5 -5 -9.5
c-0.666992 -1.33301 -1.66699 -3.5 -3 -6.5s-2.33301 -5.16699 -3 -6.5c-0.666992 -2 -2 -5.16699 -4 -9.5s-3.66699 -7.5 -5 -9.5c-4.66699 -12 -7.33398 -18.333 -8.00098 -19l-55 -124h-10h-5c-4.66699 0 -12 1.33301 -22 4s-21.333 9.33398 -34 20.001
s-19 23.667 -19 39v6l30 67l8.5 17.5c3 6.33301 6.83301 14 11.5 23l11 21.5l-83 4c8 40.667 21.667 64.334 41 71.001c3.33301 1.33301 10.666 2 21.999 2h41h18l56 112h-39h-39c10.667 46 25.667 72.333 45 79c10.667 2.66699 37.334 4.66699 80.001 6l94 175
c22.667 5.33301 44 8 64 8c28 0 42 -5 42 -15c0 -2 -0.666992 -4.5 -2 -7.5s-4.16602 -8.83301 -8.49902 -17.5s-9.33301 -18 -15 -28l-26 -47l-35.5 -67c41.333 -1.33301 71.666 -2 90.999 -2l95 176c22.667 5.33301 44 8 64 8c19.333 0 32.333 -3.33301 39 -10z
M383.001 386.996c-6.66699 0 -16.668 -0.167969 -30.001 -0.500977s-23.333 -0.5 -30 -0.5c-14 0 -24 0.333008 -30 1c-19.333 -37.333 -38.333 -76.666 -57 -117.999h13c6 0 15 0.166992 27 0.5s20.667 0.5 26 0.5c10.667 0 18.334 -0.333008 23.001 -1
c3.33301 6 13 25.667 29 59s25.667 53 29 59z" />
    <glyph glyph-name="dollar" unicode="$" horiz-adv-x="419" 
d="M610 763l-43.9971 -69.002l7 -8c4.66699 -5.33301 7 -8.33301 7 -9c9.33301 -21.333 12 -43.333 8 -66s-13.333 -42.667 -28 -60s-30 -26 -46 -26c-6.66699 0 -9.66699 3.66699 -9 11c2.66699 25.333 0 50.333 -8 75s-20.667 37.667 -38 39h-6c-47.333 0 -76 -30 -86 -90
c-7.33301 -46 -6.5 -88.667 2.5 -128s18.333 -76 28 -110s12.5 -66.333 8.5 -97v-4c-8.66699 -56 -29 -101.667 -61 -137s-74.667 -56 -128 -62l-23.5 -46c-11 -21.333 -19.167 -36.666 -24.5 -45.999c-2.66699 -1.33301 -6.33398 -2 -11.001 -2
c-18.667 0 -37.834 6 -57.501 18s-27.5 27.667 -23.5 47c1.33301 2.66699 4.83301 8.83398 10.5 18.501l12.5 21.5c-52 20.667 -73.667 64.334 -65 131.001c4 28 13.833 51.333 29.5 70s30.167 28 43.5 28c7.33301 0 12 -3 14 -9c5.33301 -42 16 -72.667 32 -92
s34.333 -29 55 -29c19.333 0 35.333 6.16699 48 18.5s20.667 28.166 24 47.499c5.33301 36 0.833008 92.5 -13.5 169.5s-18.166 136.167 -11.499 177.5c8.66699 57.333 34.167 101 76.5 131s86.833 45 133.5 45h4c13.333 21.333 21.666 34.333 24.999 39
c29.333 8.66699 55.666 13 78.999 13c17.333 0 29.333 -3.33301 36 -10z" />
    <glyph glyph-name="percent" unicode="%" horiz-adv-x="470" 
d="M505 840c0 -0.666992 -0.333008 -1.33301 -1 -2h6c50 0 78.333 -11 85 -33l1 -2v-3c-0.666992 -4 -14.167 -25 -40.5 -63l-100.5 -145.5l-125.5 -189c-43 -67 -84.5 -137.167 -124.5 -210.5s-69.333 -137.333 -88 -192c-4.66699 0 -9 1 -13 3
c-36.667 24.667 -52.667 56.667 -48 96c2 11.333 3.33301 18 4 20c8 18 28.833 55 62.5 111l113.5 185l124.5 198l103.5 162zM226 542.001h-2.00293c-30 0.666992 -48 14 -54 40s-2 55.333 12 88c13.333 30 29.5 51.833 48.5 65.5s37.5 20.5 55.5 20.5
c4 0 9.33301 -0.666992 16 -2l-2 1c20.667 -4.66699 32.834 -21.834 36.501 -51.501s-0.5 -55.167 -12.5 -76.5c-11.333 -23.333 -26.666 -43.166 -45.999 -59.499s-36.666 -24.833 -51.999 -25.5zM227.997 601.001l0.000976562 -3c-1.33301 -4 -1.33301 -6 0 -6h3
c6.66699 0 15.167 5.66699 25.5 17s18.833 24.333 25.5 39c9.33301 22 12.666 39.333 9.99902 52l-3 7c-9.33301 -0.666992 -21.333 -14 -36 -40s-23 -48 -25 -66zM322.998 86.001l-1 -0.000976562c-42 2 -60.667 27 -56 75v4c4 32.667 17 63.334 39 92.001s48 43 78 43
c7.33301 0 12.666 -0.666992 15.999 -2l-1 1c20.667 -3.33301 32.667 -20 36 -50s-0.666992 -55.667 -12 -77c-11.333 -24 -26.666 -44 -45.999 -60s-37 -24.667 -53 -26zM324.998 136h2c13.333 0 28 13.667 44 41s22.333 50 19 68l-4 7
c-9.33301 -0.666992 -19.5 -10.667 -30.5 -30s-19.5 -38.5 -25.5 -57.5s-7.66699 -28.5 -5 -28.5z" />
    <glyph glyph-name="ampersand" unicode="&#x26;" horiz-adv-x="400" 
d="M350 544c-9.33301 -14 -23.6699 -26.998 -43.0029 -38.998c-2.66699 -1.33301 -4.33398 -2 -5.00098 -2c-3.33301 0 -5.83301 1.83301 -7.5 5.5s-1.5 7.5 0.5 11.5c40.667 71.333 51.334 124 32.001 158c-10.667 12.667 -24.334 19 -41.001 19c-15.333 0 -30 -6 -44 -18
s-24 -28.333 -30 -49c-6 -19.333 -8.83301 -38.333 -8.5 -57s1.83301 -32.667 4.5 -42s7.33398 -23 14.001 -41c2 -6.66699 -0.333008 -11.667 -7 -15c-62.667 -25.333 -111.334 -74 -146.001 -146c-31.333 -64 -41.666 -121.333 -30.999 -172
c9.33301 -45.333 33.666 -68 72.999 -68h6l5 1c24 2.66699 45.833 12.334 65.5 29.001s35.167 36.167 46.5 58.5s20.166 45.166 26.499 68.499s9.5 44 9.5 62s-3 30 -9 36c-38 -14.667 -61.333 -44.667 -70 -90h-4c-28 0 -40.333 17.667 -37 53
c1.33301 28 11.833 56 31.5 84s41.5 42.667 65.5 44h4c8.66699 0 18.834 -2.66699 30.501 -8s21.167 -8 28.5 -8h4c16.667 1.33301 32.334 11 47.001 29c15.333 16.667 25.666 29.667 30.999 39c0 0.666992 0.666992 1 2 1c2 0 3 -1 3 -3c2 -13.333 1.5 -29.333 -1.5 -48
s-11.167 -37.334 -24.5 -56.001s-30.666 -28.667 -51.999 -30c-5.33301 0 -9.66602 0.333008 -12.999 1c18 -80.667 5.33301 -157 -38 -229s-100.333 -113 -171 -123h-10h-12c-58 0 -99.667 26.333 -125 79c-26.667 56.667 -27 123 -1 199
c32.667 93.333 96.334 169 191.001 227l21 12c-12 27.333 -17.333 57.666 -16 90.999s6.5 64.5 15.5 93.5s23.833 53.333 44.5 73s44.334 29.5 71.001 29.5c1.33301 0 3.33301 -0.166992 6 -0.5s4.66699 -0.5 6 -0.5c13.333 -0.666992 25 -5 35 -13
c17.333 -9.33301 31.5 -27 42.5 -53s15.667 -56.833 14 -92.5s-11.5 -69.167 -29.5 -100.5z" />
    <glyph glyph-name="quotesingle" unicode="'" horiz-adv-x="291" 
d="M668 964h5.00098c18 0 27 -9.66699 27 -29c0 -25.333 -14 -50.666 -42 -75.999s-52.667 -40 -74 -44c-2.66699 0 -4.33398 1.16699 -5.00098 3.5s0 4.16602 2 5.49902c12 6 23.5 15 34.5 27s19.167 22.333 24.5 31l7 14c-4.66699 -4.66699 -11 -7 -19 -7
c-0.666992 0 -1.66699 0.166992 -3 0.5s-2.33301 0.5 -3 0.5c-10.667 2 -13 12 -7 30c8 22 22.333 36 43 42z" />
    <glyph glyph-name="parenleft" unicode="(" horiz-adv-x="258" 
d="M484 853h-0.999023c15.333 9.33301 29.666 14 42.999 14c17.333 0 34.666 -10.667 51.999 -32l-7 -5l-19 -16.5l-29 -25.5c-11.333 -10 -23.833 -22.5 -37.5 -37.5l-43 -49c-15 -17.667 -30.833 -38.167 -47.5 -61.5s-33 -48 -49 -74s-32.5 -55.333 -49.5 -88
s-32.833 -66.334 -47.5 -101.001c-47.333 -119.333 -71 -233.333 -71 -342c0 -37.333 2.66699 -69.333 8 -96h-4c-72 0 -108 61 -108 183c0 46 5 94.667 15 146s22.333 94.666 37 129.999c28 70 59.333 133 94 189s68.834 101.333 102.501 136s63 61.834 88 81.501
s49.5 35.834 73.5 48.501z" />
    <glyph glyph-name="parenright" unicode=")" horiz-adv-x="539" 
d="M96 14l0.999023 0.000976562c-18.667 -9.33301 -32.667 -14 -42 -14c-18 0 -35.667 11 -53 33c2.66699 1.33301 9.83398 6.66602 21.501 15.999s30 26.666 55 51.999s50.833 54.333 77.5 87s56 76 88 130s61 111.333 87 172c47.333 120.667 71 234.667 71 342
c0 42.667 -2.66699 74.667 -8 96c74.667 -25.333 112 -94.666 112 -207.999c0 -82 -19 -170.833 -57 -266.5s-88.667 -183.5 -152 -263.5s-130.333 -138.667 -201 -176z" />
    <glyph glyph-name="asterisk" unicode="*" horiz-adv-x="367" 
d="M688 804l-1.00098 -0.00390625c-2.66699 0.666992 -11 5.33398 -25 14.001l-30 -55l-32 6c-8.66699 2.66699 -13 6 -13 10c0.666992 4.66699 5.66699 17.334 15 38.001l-63 -32c-1.33301 20 0.666992 35.333 6 46c1.33301 2 3 4 5 6c7.33301 6.66699 24.666 17 51.999 31
l-40 36c31.333 24 51.666 36 60.999 36h1c4.66699 -0.666992 15.334 -7 32.001 -19l33 60l32 -6c8.66699 -2.66699 13 -6 13 -10c-1.33301 -5.33301 -6.66602 -17.666 -15.999 -36.999l65 32c0.666992 -20.667 -1.66602 -36 -6.99902 -46
c-2.66699 -3.33301 -4.33398 -5.33301 -5.00098 -6c-5.33301 -5.33301 -24.666 -16.666 -57.999 -33.999l36 -34c-30.667 -24 -51 -36 -61 -36z" />
    <glyph glyph-name="plus" unicode="+" horiz-adv-x="467" 
d="M468 276c-21.333 -6 -67 -9 -137 -9l-66 -152l-23 8c-9.33301 3.33301 -21.5 9.66602 -36.5 18.999s-22.5 18 -22.5 26l1 5c3.33301 20.667 14 53 32 97l-142 6c12 39.333 27.333 62.666 46 69.999c12 4.66699 55.333 7 130 7l86 201c6 -2 13.5 -4.66699 22.5 -8
s21.167 -9.66602 36.5 -18.999s23 -18 23 -26l-1 -5c-3.33301 -19.333 -20 -67.666 -50 -144.999l145 -5c-11.333 -40.667 -26 -64 -44 -70z" />
    <glyph glyph-name="comma" unicode="," horiz-adv-x="185" 
d="M119 111c22 0 35 -7 39 -21c3.33301 -14.667 2.33301 -27 -3 -37c-15.333 -35.333 -40 -53 -74 -53c-18 1.33301 -26.333 4.66602 -25 9.99902c14 14 22 31.667 24 53c0.666992 12.667 4.16699 23.834 10.5 33.501s15.833 14.5 28.5 14.5z" />
    <glyph glyph-name="hyphen" unicode="-" horiz-adv-x="510" 
d="M490 243c-33.333 0 -84.334 4.5 -153.001 13.5s-114 13.5 -136 13.5c-27.333 0 -45 -4 -53 -12c8 56 21 88 39 96c0.666992 0 2.33398 0.166992 5.00098 0.5s5 0.5 7 0.5c11.333 0 53.166 -4.5 125.499 -13.5s128.833 -13.5 169.5 -13.5
c60.667 0 102.334 8.66699 125.001 26c-7.33301 -58 -20.333 -90 -39 -96c-22.667 -10 -52.667 -15 -90 -15z" />
    <glyph glyph-name="period" unicode="." horiz-adv-x="96" 
d="M95 28c0 -9.33301 -4.16699 -17.166 -12.5 -23.499s-18.5 -9.5 -30.5 -9.5s-22.333 3.16699 -31 9.5s-13 14.166 -13 23.499s4.33301 17.333 13 24s19 10 31 10s22.167 -3.33301 30.5 -10s12.5 -14.667 12.5 -24z" />
    <glyph glyph-name="slash" unicode="/" horiz-adv-x="318" 
d="M565 960l20.0029 0.000976562c14 0 27.5 -5.5 40.5 -16.5s22.833 -24.167 29.5 -39.5c1.33301 -2.66699 2 -4.33398 2 -5.00098c-13.333 -30 -39.5 -77.333 -78.5 -142l-122 -199.5c-42.333 -68.333 -90.833 -154.166 -145.5 -257.499s-102.667 -204.333 -144 -303
c-22.667 0 -44.834 13.667 -66.501 41s-27.834 57.666 -18.501 90.999c10 21.333 57 98.333 141 231l236 383.5c73.333 123 108.666 195.167 105.999 216.5h-2l2 2v-2z" />
    <glyph glyph-name="zero" unicode="0" horiz-adv-x="536" 
d="M472 807c38 0 69.501 -12.001 94.501 -36.001s38.167 -55 39.5 -93c2 -58.667 -11.833 -131 -41.5 -217s-67.334 -168.167 -113.001 -246.5s-98.834 -145.5 -159.501 -201.5s-117.334 -84 -170.001 -84h-7c-26.667 1.33301 -53.667 18.333 -81 51
s-41.666 61.334 -42.999 86.001c-4 60.667 8.5 133.5 37.5 218.5s66.333 165.5 112 241.5s98.834 141.333 159.501 196s118 83 172 85zM513.001 737.999c-53.333 -0.666992 -118.169 -58.3311 -194.502 -172.998s-135.333 -230 -177 -346s-47.167 -177 -16.5 -183
c0.666992 0 1.83398 -0.166992 3.50098 -0.5s2.83398 -0.5 3.50098 -0.5c44 0 104.333 58.667 181 176s137.5 234.666 182.5 351.999s50.833 175.666 17.5 174.999z" />
    <glyph glyph-name="one" unicode="1" horiz-adv-x="283" 
d="M61 -62c-55.333 38 -78.9971 74.333 -70.9971 109c14.667 36.667 61.167 129.834 139.5 279.501l189.5 356.5c-43.333 -15.333 -75.333 -23 -96 -23c-4.66699 0 -10.334 4 -17.001 12s-9.66699 14.667 -9 20c40 13.333 99.667 51.666 179 114.999
c11.333 6 26.666 9 45.999 9c34 0 55 -5.66699 63 -17c2.66699 -3.33301 2.66699 -6.66602 0 -9.99902c-40.667 -62 -106.834 -192.333 -198.501 -391s-152.167 -354.334 -181.5 -467.001c0 -1.33301 -2.33301 -2 -7 -2c-14.667 0 -27 3 -37 9z" />
    <glyph glyph-name="two" unicode="2" horiz-adv-x="657" 
d="M428 52c11.333 -4.66699 22.6602 -16.833 33.9932 -36.5s18.166 -36.834 20.499 -51.501s1.16602 -23 -3.50098 -25c-7.33301 0.666992 -19.166 3.33398 -35.499 8.00098s-36.166 8.83398 -59.499 12.501s-50 5.5 -80 5.5c-74.667 0 -173 -13 -295 -39h-2
c-10 1.33301 -14.667 14.166 -14 38.499s4.33398 42.5 11.001 54.5c8.66699 16.667 38.834 47.834 90.501 93.501l175.5 150.5l193.5 167c63.667 56.667 115.167 109.334 154.5 158.001s55.333 84.667 48 108c-4.66699 15.333 -19 23 -43 23
c-36 0 -81.333 -16.167 -136 -48.5s-101.667 -73.833 -141 -124.5c-21.333 -26.667 -35.833 -50.667 -43.5 -72s-9.83398 -37.333 -6.50098 -48s8.33301 -19.5 15 -26.5s12.334 -12 17.001 -15s6 -5.16699 4 -6.5c-8.66699 -5.33301 -19.667 -8 -33 -8
c-23.333 0 -46.666 9 -69.999 27s-37.666 37.667 -42.999 59c-18 64.667 26 144.667 132 240c34.667 30.667 73.667 55.667 117 75s85.666 29 126.999 29c54 0 99.667 -17.333 137 -52c28.667 -26.667 43.334 -57.667 44.001 -93s-11.166 -72.333 -35.499 -111
s-55.166 -78.334 -92.499 -119.001s-80.833 -81.834 -130.5 -123.501l-144.5 -116.5l-140 -106c-7.33301 -5.33301 -13 -9.33301 -17 -12c26 6 56 9 90 9c60.667 0 112.334 -8 155.001 -24z" />
    <glyph glyph-name="three" unicode="3" horiz-adv-x="579" 
d="M452 444c28.667 -6.66699 53.499 -19.335 74.499 -38.002s32.833 -41.667 35.5 -69c6 -48 -18.167 -104.833 -72.5 -170.5s-120.5 -122.167 -198.5 -169.5s-146.333 -71 -205 -71c-47.333 0 -81.333 17.333 -102 52c-17.333 29.333 -15 62.5 7 99.5
s44.333 60.167 67 69.5c14 6.66699 27.667 10 41 10c18.667 0 21.334 -8 8.00098 -24c-20.667 -23.333 -35.667 -44.5 -45 -63.5s-13.666 -32.667 -12.999 -41s3.33398 -14.166 8.00098 -17.499c66.667 2 147.667 43.667 243 125
c71.333 60.667 122.666 118.334 153.999 173.001c26.667 46 26 70.667 -2 74c-2.66699 0.666992 -6.66699 1 -12 1c-18.667 0 -54.667 -9.66699 -108 -29c-1.33301 -0.666992 -4.33301 -1 -9 -1c-18.667 0 -36.667 7.66699 -54 23c-16.667 14.667 -17.667 27 -3 37
c29.333 20 60.5 43.5 93.5 70.5s67.667 57.667 104 92s62.833 67.333 79.5 99s17.667 56.5 3 74.5c-4.66699 6.66699 -14.667 10 -30 10c-35.333 0 -80.5 -16.167 -135.5 -48.5s-101.167 -75.166 -138.5 -128.499c-10 -14 -18 -27.333 -24 -40
s-9.83301 -23.834 -11.5 -33.501s-2.33398 -18.5 -2.00098 -26.5s1.66602 -14.833 3.99902 -20.5s4.5 -10.167 6.5 -13.5s4.33301 -6.33301 7 -9l3 -4c-8 -6 -17.333 -9 -28 -9c-22 0 -42.333 11 -61 33s-25.667 47.333 -21 76c4 29.333 20.667 63.666 50 102.999
c36.667 47.333 84.834 90.5 144.501 129.5s116.167 58.5 169.5 58.5c54.667 0 96 -22 124 -66c49.333 -75.333 -1.66699 -180.666 -153 -315.999c1.33301 0 2 -0.333008 2 -1z" />
    <glyph glyph-name="four" unicode="4" horiz-adv-x="470" 
d="M431 547c4.66699 6.66699 12.332 10.001 22.999 10.001c16.667 0 32.834 -6.16699 48.501 -18.5s20.167 -23.833 13.5 -34.5c-33.333 -49.333 -64.333 -99.333 -93 -150c1.33301 0 3.16602 -0.166992 5.49902 -0.5s4.16602 -0.5 5.49902 -0.5
c9.33301 -0.666992 20.5 -6.66699 33.5 -18s20.5 -22 22.5 -32c2 -9.33301 -1 -14 -9 -14c-2 0 -9.5 0.5 -22.5 1.5s-25.167 1.5 -36.5 1.5c-14 0 -25.333 -0.333008 -34 -1c-97.333 -174.667 -134 -289.334 -110 -344.001c0 -12 -10 -18 -30 -18
c-18 0 -36.333 4.5 -55 13.5s-28 18.833 -28 29.5c-0.666992 64.667 34 164.667 104 300c-29.333 -6.66699 -57.333 -13.667 -84 -21s-45.667 -12.333 -57 -15s-22.666 -4 -33.999 -4c-20 0 -40.833 10 -62.5 30s-31.834 35 -30.501 45c0.666992 8 9.83398 20.333 27.501 37
l72.5 67l100 95.5c36 35.667 76.167 81.334 120.5 137.001s85.166 114.5 122.499 176.5c2.66699 4.66699 6.33398 7 11.001 7c13.333 0 27.833 -12.667 43.5 -38s19.834 -44.333 12.501 -57c-14 -22.667 -29 -45 -45 -67s-28.333 -38.333 -37 -49
s-25.167 -29.834 -49.5 -57.501l-48.5 -55.5c-47.333 -55.333 -105.333 -116.333 -174 -183c60 13.333 111.333 23 154 29c40 72.667 80 138.667 120 198z" />
    <glyph glyph-name="five" unicode="5" horiz-adv-x="550" 
d="M646 781c4 -17.333 -5.66992 -26 -29.0029 -26h-8c-14.667 1.33301 -36.667 2 -66 2c-56.667 0 -113 -5 -169 -15c-34 -82 -70 -160.667 -108 -236c20.667 7.33301 41.667 11 63 11c10.667 0 21 -1 31 -3c51.333 -10 87.333 -35.333 108 -76s24.667 -87 12 -139
c-10 -44.667 -27.5 -89 -52.5 -133s-54.5 -83.5 -88.5 -118.5s-73.167 -63.333 -117.5 -85s-89.166 -32.5 -134.499 -32.5c-13.333 0 -27 1 -41 3c-26 3.33301 -42 18 -48 44c-4 18.667 -2 30.334 6 35.001c1.33301 0.666992 2.66602 1 3.99902 1
c4 0 8.66699 -3.66699 14 -11c10.667 -1.33301 19 -2 25 -2c65.333 0 126.833 29 184.5 87s101.167 122.333 130.5 193c17.333 40.667 26 77.667 26 111c0 20 -2.33301 35.333 -7 46l-2.5 5c-1 2 -1.83301 3.33301 -2.5 4s-3 1 -7 1
c-17.333 -2.66699 -36 -8.83398 -56 -18.501s-36.333 -18.667 -49 -27s-30.167 -20.833 -52.5 -37.5s-37.5 -27.667 -45.5 -33c-5.33301 -3.33301 -11.666 -5 -18.999 -5c-19.333 0 -38.166 6.5 -56.499 19.5s-23.166 26.167 -14.499 39.5
c74 123.333 138.667 252.333 194 387c-4.66699 7.33301 -6.16699 15.833 -4.5 25.5s7.16699 15.5 16.5 17.5c50.667 10 105.667 15 165 15c46 0 92.333 -2 139 -6c11.333 -1.33301 23.5 -6.33301 36.5 -15s20.833 -18 23.5 -28z" />
    <glyph glyph-name="six" unicode="6" horiz-adv-x="539" 
d="M463 814c45.333 -8 78.333 -29.666 99 -64.999s29.5 -73.333 26.5 -114s-13.167 -79.667 -30.5 -117c-8.66699 -18.667 -22.167 -32.834 -40.5 -42.501s-36.5 -14.5 -54.5 -14.5c-26 0 -39.667 7.33301 -41 22c11.333 2.66699 23.166 21 35.499 55
s20.5 69.833 24.5 107.5s1 70.167 -9 97.5c-49.333 -14 -103.666 -59.833 -162.999 -137.5s-107.333 -152.5 -144 -224.5c45.333 23.333 89.666 35 132.999 35c47.333 0 86.333 -15.333 117 -46s42 -69 34 -115c-12.667 -74 -50.667 -146.833 -114 -218.5
s-129 -107.167 -197 -106.5c-40 0.666992 -76 12.5 -108 35.5s-52 53.5 -60 91.5c-8 39.333 -3.83301 91.333 12.5 156s41.5 131.167 75.5 199.5s72 133 114 194s87.333 111.167 136 150.5s93.334 59 134.001 59c4 0 10.667 -0.666992 20 -2zM347 345.001
c-5.33301 2 -11.665 3 -18.998 3c-34.667 0 -78.834 -20.167 -132.501 -60.5s-91.5 -85.5 -113.5 -135.5c0 -1.33301 -0.666992 -2 -2 -2c-18.667 -76 -17.334 -125.667 3.99902 -149c9.33301 -9.33301 20 -14 32 -14c33.333 0 75.333 28 126 84s86.5 110.5 107.5 163.5
s20.167 89.833 -2.5 110.5zM-34.999 0.000976562z" />
    <glyph glyph-name="seven" unicode="7" horiz-adv-x="475" 
d="M556 782c1.33301 0 2.6709 0.166016 4.00391 0.499023s2.66602 0.5 3.99902 0.5c16.667 0 32.667 -7.16699 48 -21.5s26.5 -29.333 33.5 -45s8.5 -25.5 4.5 -29.5c-5.33301 -6 -33.833 -36.333 -85.5 -91l-139 -152.5l-138.5 -166.5
c-51.333 -64 -93.833 -125.333 -127.5 -184s-54.5 -110 -62.5 -154c-0.666992 -6 -4.66699 -9 -12 -9c-19.333 0 -42.5 15.333 -69.5 46s-35.167 58 -24.5 82c23.333 53.333 54.666 107 93.999 161s77.833 101 115.5 141l146.5 155.5c60 63.667 111.333 120.834 154 171.501
c-52.667 -8 -98.667 -12 -138 -12c-44 0 -82 4.33301 -114 13c-16 8.66699 -32.667 28 -50 58c-21.333 38 -22.333 59.667 -3 65c3.33301 0.666992 7 1 11 1c15.333 -9.33301 52.666 -17.333 111.999 -24s115.666 -10 168.999 -10c25.333 0 48 1.33301 68 4z" />
    <glyph glyph-name="eight" unicode="8" horiz-adv-x="657" 
d="M691 730c7.33301 -60 -28.002 -127.669 -106.002 -203.002c-21.333 -20.667 -63.333 -53.667 -126 -99c3.33301 -3.33301 8 -7.66602 14 -12.999l16 -14.5l13 -12.5c78.667 -83.333 102.667 -166 72 -248c-24 -64 -73.167 -115 -147.5 -153s-149.166 -57 -224.499 -57
c-49.333 0 -95.666 9 -138.999 27s-72 46.667 -86 86c-23.333 68.667 9.33398 146.667 98.001 234c55.333 52.667 140.333 114 255 184c-48.667 48.667 -73.667 98 -75 148s16.167 96.333 52.5 139s79.5 74.334 129.5 95.001c26.667 11.333 55 17 85 17
c42.667 0 80.167 -11.167 112.5 -33.5s51.166 -54.5 56.499 -96.5zM467.998 172.998c34 74.667 13 147.666 -63 218.999l-79 -49c-22 -14 -50.167 -34 -84.5 -60s-62.5 -50.167 -84.5 -72.5s-41.333 -47.666 -58 -75.999s-25.334 -55.166 -26.001 -80.499
c0 -13.333 1.33301 -23.5 4 -30.5s4.66699 -10.833 6 -11.5s4.33301 -2 9 -4c16 -6 35.667 -9 59 -9c36.667 0 75.667 6.5 117 19.5s80.833 33.167 118.5 60.5s64.834 58.666 81.501 93.999zM384.998 499.997c58.667 41.333 102.667 77.666 132 108.999
c22 23.333 39.667 45.333 53 66s21.833 37.834 25.5 51.501s5 25.5 4 35.5s-3.5 17.333 -7.5 22s-8 7.33398 -12 8.00098c-1.33301 0 -3 0.166992 -5 0.5s-3.33301 0.5 -4 0.5c-25.333 0 -54.666 -9.83301 -87.999 -29.5s-62.833 -46.834 -88.5 -81.501
s-37.834 -70 -36.501 -106c0.666992 -28 9.66699 -53.333 27 -76z" />
    <glyph glyph-name="nine" unicode="9" horiz-adv-x="489" 
d="M545 798c33.333 -16.667 54.6699 -42.6689 64.0029 -78.002s7.5 -75.5 -5.5 -120.5s-32.833 -93.5 -59.5 -145.5s-59.167 -104.167 -97.5 -156.5s-78.5 -102 -120.5 -149s-84.833 -89.5 -128.5 -127.5s-83.834 -67.333 -120.501 -88
c-4.66699 -2.66699 -9.66699 -4 -15 -4c-21.333 0 -43 12.667 -65 38c-19.333 22.667 -24 38 -14 46c0.666992 0.666992 1.66699 1.33398 3 2.00098c57.333 24 115.5 61.667 174.5 113s111.833 108.666 158.5 171.999c-39.333 -20.667 -75.333 -31 -108 -31
c-27.333 0 -56 8.5 -86 25.5s-49.667 37.167 -59 60.5c-7.33301 18 -6.66602 41.667 2.00098 71c7.33301 28.667 24.166 64.334 50.499 107.001s57.666 85.334 93.999 128.001s78.166 79 125.499 109s92 45 134 45c26 0 50.333 -5.66699 73 -17zM176.004 337.998
c45.333 7.33301 98 33.168 158 77.501s106.333 90.833 139 139.5c41.333 93.333 55 156.666 41 189.999h-3c-41.333 -12.667 -88.833 -45.5 -142.5 -98.5s-99.167 -109.333 -136.5 -169s-56 -106.167 -56 -139.5z" />
    <glyph glyph-name="colon" unicode=":" horiz-adv-x="197" 
d="M238 395c15.333 0 27.833 -2.66699 37.5 -8s14.167 -12 13.5 -20v-2c-1.33301 -8.66699 -8.83301 -16.334 -22.5 -23.001s-29.167 -10.334 -46.5 -11.001h-4c-15.333 0 -28 2.83301 -38 8.5s-14.333 12.167 -13 19.5v2c1.33301 8.66699 8.83301 16.334 22.5 23.001
s29.167 10.334 46.5 11.001h4zM182 287c15.333 0 28.001 -2.66699 38.001 -8s14.667 -12 14 -20v-2c-2 -8.66699 -9.83301 -16.334 -23.5 -23.001s-29.167 -10.334 -46.5 -11.001h-4c-15.333 0 -27.833 2.66699 -37.5 8s-14.167 12 -13.5 20v2
c2 8.66699 9.66699 16.334 23 23.001s28.666 10.334 45.999 11.001h4z" />
    <glyph glyph-name="semicolon" unicode=";" horiz-adv-x="191" 
d="M223 403c15.333 0 27.832 -2.66699 37.499 -8s14.167 -12 13.5 -20v-2c-2 -8.66699 -9.66699 -16.334 -23 -23.001s-28.666 -10.334 -45.999 -11.001h-4c-15.333 0 -28 2.83301 -38 8.5s-14.667 12.167 -14 19.5l1 2c1.33301 8.66699 8.83301 16.334 22.5 23.001
s29.167 10.334 46.5 11.001h4zM148.999 295c22 0 35 -7.33203 39 -21.999c3.33301 -14 2.33301 -26 -3 -36c-16 -36 -40.667 -54 -74 -54c-15.333 0 -23.666 2.66699 -24.999 8c-0.666992 0.666992 -0.333984 1.66699 0.999023 3c13.333 13.333 21 30.666 23 51.999
c0.666992 12.667 4.16699 24 10.5 34s15.833 15 28.5 15z" />
    <glyph glyph-name="less" unicode="&#x3c;" horiz-adv-x="342" 
d="M276 125c-0.666992 -16 -5.83398 -32.833 -15.501 -50.5s-19 -31.5 -28 -41.5s-14.167 -15 -15.5 -15c-8.66699 18.667 -31.167 48.167 -67.5 88.5l-102.5 109c-32 32.333 -48 49.166 -48 50.499c-3.33301 21.333 -2.33301 39.666 3 54.999
c1.33301 0.666992 17.333 9.83398 48 27.501l96 55l104 59c36 20.333 61.667 34.166 77 41.499c12.667 0.666992 19.667 -17.166 21 -53.499s-2 -55.166 -10 -56.499c-82 -48.667 -152.333 -88 -211 -118c14.667 -26 34.334 -51.5 59.001 -76.5s46 -43.5 64 -55.5z" />
    <glyph glyph-name="equal" unicode="=" horiz-adv-x="451" 
d="M222 451c7.33301 2.66699 22.999 4 46.999 4s70.833 -2 140.5 -6s117.834 -6 144.501 -6c35.333 0 55.666 2.66699 60.999 8c-5.33301 -48 -16.333 -75 -33 -81c-12 -4 -34.333 -6 -67 -6c-26.667 0 -73.167 1.83301 -139.5 5.5s-111.166 5.5 -134.499 5.5
c-28 0 -45.333 -1.66699 -52 -5c5.33301 48 16.333 75 33 81zM155.999 303c7.33301 2.66699 22.999 4 46.999 4s70.833 -2 140.5 -6s117.834 -6 144.501 -6c35.333 0 55.666 2.66699 60.999 8c-4.66699 -48 -15.334 -75 -32.001 -81c-12 -4 -34.333 -6 -67 -6
c-26.667 0 -73.167 1.83301 -139.5 5.5s-111.166 5.5 -134.499 5.5c-28 0 -45.333 -1.66699 -52 -5c4.66699 48 15.334 75 32.001 81z" />
    <glyph glyph-name="greater" unicode="&#x3e;" horiz-adv-x="477" 
d="M269 381c0.666992 16 4.50098 32.502 11.501 49.502s13.5 30.167 19.5 39.5s9.33301 14 10 14c161.333 -136.667 242.333 -206 243 -208c3.33301 -21.333 2.33301 -39.666 -3 -54.999c-0.666992 -0.666992 -16.5 -9.83398 -47.5 -27.501l-96.5 -55.5l-104 -59
c-36 -20 -61.667 -33.667 -77 -41c-8.66699 -0.666992 -14.834 7.83301 -18.501 25.5s-4.5 35.667 -2.5 54s5.33301 28.166 10 29.499c82 49.333 152.333 88.666 211 117.999c-14.667 26 -35 48.667 -61 68s-48.333 32.333 -67 39z" />
    <glyph glyph-name="question" unicode="?" horiz-adv-x="431" 
d="M198 88c15.333 0 27.999 -3.83105 37.999 -11.498s14.667 -16.834 14 -27.501v-2c-2 -12.667 -9.83301 -23.5 -23.5 -32.5s-29.167 -13.833 -46.5 -14.5h-4c-15.333 0 -28 3.66699 -38 11s-14.333 16.666 -13 27.999v3c2 12 9.83301 22.5 23.5 31.5
s28.834 13.833 45.501 14.5h4zM696.999 915.002c50.667 0 83.834 -17.001 99.501 -51.001s15.167 -75.5 -1.5 -124.5s-44.667 -96.833 -84 -143.5c-22 -26 -58.667 -58 -110 -96l-145 -104.5c-45.333 -31.667 -88.5 -70 -129.5 -115s-66.167 -89.5 -75.5 -133.5
c-6.66699 -2.66699 -18.334 -4 -35.001 -4c-34.667 0 -50.667 7.66699 -48 23c9.33301 38.667 24.833 74.5 46.5 107.5s45.5 60.833 71.5 83.5s55 45.834 87 69.501s62.667 45 92 64s59 42 89 69s54.667 54.833 74 83.5c14.667 20.667 26.167 40.834 34.5 60.501
s13.666 36.834 15.999 51.501s2.16602 27.667 -0.500977 39s-7.66699 20.166 -15 26.499s-16.333 10.166 -27 11.499h-7c-22 0 -46 -7.66699 -72 -23s-50.667 -36 -74 -62s-43.166 -58.667 -59.499 -98s-25.166 -80.333 -26.499 -123c-6 0.666992 -12.5 2.66699 -19.5 6
s-14.667 9.33301 -23 18s-13.333 20 -15 34s-0.5 31.667 3.5 53c22 86 67 153.833 135 203.5s141 74.5 219 74.5z" />
    <glyph glyph-name="at" unicode="@" horiz-adv-x="697" 
d="M430 575c134 -3.33301 210.328 -47.335 228.995 -132.002c14 -64.667 -6 -139.667 -60 -225c-44 -70 -95 -122.333 -153 -157c-32.667 -19.333 -62 -29 -88 -29c-14 0 -25.167 7.33301 -33.5 22s-12.5 32.667 -12.5 54c0 14.667 2.66699 30.667 8 48
c-0.666992 -0.666992 -7.16699 -8.83398 -19.5 -24.501s-24.5 -30 -36.5 -43s-27.333 -25.5 -46 -37.5s-36 -18 -52 -18c-47.333 0 -71 31.667 -71 95c0 39.333 10.333 83 31 131s49.334 90 86.001 126s74.334 54 113.001 54c39.333 0 72.666 -22.667 99.999 -68
c12.667 16.667 25.334 25.334 38.001 26.001h5c16 0 28.5 -3.33301 37.5 -10s13.5 -14 13.5 -22c0 -2.66699 -0.333008 -4.33398 -1 -5.00098c-30 -31.333 -59.833 -76.166 -89.5 -134.499s-44.5 -100.833 -44.5 -127.5c0 -12.667 4 -19 12 -19h1
c15.333 0.666992 43 24.334 83 71.001c62.667 72.667 103 142.334 121 209.001c25.333 95.333 -10.667 151.333 -108 168c-17.333 3.33301 -36.333 5 -57 5c-85.333 1.33301 -165.166 -25.167 -239.499 -79.5s-130.166 -133.5 -167.499 -237.5
c-18 -54 -26.333 -100.167 -25 -138.5s11.666 -69.5 30.999 -93.5s42.833 -41.5 70.5 -52.5s58.834 -16.5 93.501 -16.5c38.667 0 76.834 6.5 114.501 19.5s69.834 31.167 96.501 54.5c6 5.33301 11.333 8 16 8c7.33301 -0.666992 10.666 -8.16699 9.99902 -22.5
s-4 -23.833 -10 -28.5c-24.667 -25.333 -56.667 -45 -96 -59s-81.333 -21 -126 -21c-44 0 -84.833 7 -122.5 21s-70.5 36 -98.5 66s-44.5 68.333 -49.5 115s3.16699 102.667 24.5 168c38 106.667 98.167 190 180.5 250s179.5 90 291.5 90zM193.995 72.998
c42 0 106.666 79.335 193.999 238.002c2.66699 6 6.5 13.667 11.5 23s7.83301 14.666 8.5 15.999c0 0.666992 -1 2.83398 -3 6.50098s-4.16699 7.33398 -6.5 11.001s-5.33301 7.5 -9 11.5s-8.16699 7.16699 -13.5 9.5s-11 3.5 -17 3.5h-1
c-24.667 -0.666992 -52.167 -19.334 -82.5 -56.001s-55.166 -77.334 -74.499 -122.001s-29 -80.334 -29 -107.001c0 -22.667 7.33301 -34 22 -34z" />
    <glyph glyph-name="A" unicode="A" horiz-adv-x="895" 
d="M986 879l4.00293 -0.000976562c7.33301 0 15.166 -0.666992 23.499 -2s19.166 -4 32.499 -8s23.833 -11.167 31.5 -21.5s10.5 -23.5 8.5 -39.5c-0.666992 -7.33301 -14.667 -35.166 -42 -83.499l-96 -174c-36.667 -67.667 -72.334 -139 -107.001 -214
s-61.5 -150.167 -80.5 -225.5s-22.833 -137.666 -11.5 -186.999c-2.66699 -4 -9 -6 -19 -6c-12 0 -25.667 2.5 -41 7.5s-30.166 12.5 -44.499 22.5s-24.5 22.5 -30.5 37.5s-5.66699 32.5 1 52.5c20 62 61 155 123 279h-132c-47.333 -62 -88.333 -113.333 -123 -154
s-73.834 -81.667 -117.501 -123s-86.667 -72.166 -129 -92.499s-84.166 -30.166 -125.499 -29.499c-54.667 1.33301 -93.334 28.666 -116.001 81.999c-14.667 34 -18.334 63 -11.001 87c2.66699 8.66699 6.66699 13 12 13h2l2 -1c21.333 -8 43.333 -12 66 -12
c181.333 0 456.666 238 825.999 714c-51.333 -4 -100.333 -17.333 -147 -40s-86 -48.834 -118 -78.501s-61.667 -63.5 -89 -101.5s-48.5 -71.667 -63.5 -101s-27.833 -58 -38.5 -86c-2.66699 -4.66699 -6 -7 -10 -7c-11.333 0 -22.166 14 -32.499 42
s-13.833 55.333 -10.5 82c1.33301 15.333 5.33301 28 12 38c34 53.333 76.5 101.666 127.5 144.999s103.5 78 157.5 104s107.333 46 160 60s101.334 21 146.001 21zM682.003 417.999h105.999l156 294l21 39c-77.333 -71.333 -171.666 -182.333 -282.999 -333z" />
    <glyph glyph-name="B" unicode="B" horiz-adv-x="596" 
d="M764 748c-1.33301 -61.333 -38.334 -129.497 -111.001 -204.497s-153.334 -126.5 -242.001 -154.5l3 1c1.33301 0 3.5 0.333008 6.5 1s6.16699 1.16699 9.5 1.5s7.33301 0.666016 12 0.999023s9.33398 0.5 14.001 0.5c28.667 0 52.834 -6.5 72.501 -19.5
s28.167 -36.833 25.5 -71.5c-4 -46.667 -23.167 -96.334 -57.5 -149.001s-76.5 -96.834 -126.5 -132.501s-97.333 -53.5 -142 -53.5c-61.333 0 -99 25.333 -113 76c-4.66699 -12 -9.33398 -29.333 -14.001 -52s-7.33398 -39.334 -8.00098 -50.001c0 -12.667 -6 -19 -18 -19
c-16.667 0 -34 10.833 -52 32.5s-24.667 46.167 -20 73.5c17.333 106 59.833 218.167 127.5 336.5s137.834 212.5 210.501 282.5c21.333 20 43.833 36 67.5 48s42.5 18 56.5 18c4.66699 0 8.33398 -0.833008 11.001 -2.5s3.66699 -3.83398 3 -6.50098v-3
c-24 -18.667 -64.667 -67.5 -122 -146.5s-99.666 -149.833 -126.999 -212.5c64 18.667 127.333 53.834 190 105.501s112 104 148 157s54.667 95.833 56 128.5c0.666992 26.667 -10.333 47.167 -33 61.5s-52.667 21.5 -90 21.5c-40 0 -82.833 -8.33301 -128.5 -25
s-91.334 -41 -137.001 -73s-87.334 -75.5 -125.001 -130.5s-65.167 -116.833 -82.5 -185.5c-2.66699 -6 -6 -9 -10 -9c-12 0 -19.333 14.5 -22 43.5s-1.33398 57.167 3.99902 84.5c16 88 80.333 169.167 193 243.5s238.667 111.5 378 111.5
c66.667 0 115.834 -11.667 147.501 -35s46.834 -54.666 45.501 -93.999zM433.999 283.003c0.666992 20.667 -4.49805 36.167 -15.498 46.5s-26.833 15.5 -47.5 15.5c-40.667 0 -94.334 -17.667 -161.001 -53c-13.333 -21.333 -31 -67.333 -53 -138c36.667 22 82 33 136 33
c31.333 0 54.333 -7.33301 69 -22c-2.66699 1.33301 -7 2 -13 2c-14 0 -31.833 -2.33301 -53.5 -7s-43.834 -11.5 -66.501 -20.5s-40.667 -21.333 -54 -37s-17 -33.167 -11 -52.5c6.66699 -23.333 21.667 -35 45 -35c28.667 0 60.667 15.333 96 46s65.5 67.167 90.5 109.5
s37.833 79.833 38.5 112.5z" />
    <glyph glyph-name="C" unicode="C" horiz-adv-x="529" 
d="M663 852l6 0.00195312c16 0 32.667 -5.83301 50 -17.5s26 -20.834 26 -27.501s-1.33301 -10.334 -4 -11.001c-16 -8 -31.333 -17.333 -46 -28s-27.834 -21.834 -39.501 -33.501s-22.834 -24 -33.501 -37s-20 -25.667 -28 -38s-15.333 -24.5 -22 -36.5l-17.5 -32.5
l-13 -25.5c-3.66699 -7.33301 -6.83398 -13 -9.50098 -17s-4.66699 -5.66699 -6 -5c-12 6 -20 16.167 -24 30.5s-4 31 0 50s8.5 36.5 13.5 52.5s11 32.5 18 49.5s10.833 26.833 11.5 29.5c4.66699 12.667 5.16699 22.167 1.5 28.5s-12.167 9.5 -25.5 9.5h-3
c-32.667 -0.666992 -70.834 -20.5 -114.501 -59.5s-85 -88.167 -124 -147.5s-72.167 -128.5 -99.5 -207.5s-41.666 -155.167 -42.999 -228.5c0 -32.667 7.16699 -59.667 21.5 -81s34.5 -31.666 60.5 -30.999c29.333 0 57 7 83 21s47.5 30.667 64.5 50
s31.833 38.833 44.5 58.5s22.834 36.334 30.501 50.001s12.834 20.5 15.501 20.5c2 0 3 -1.33301 3 -4c-30 -100 -73.167 -176.833 -129.5 -230.5s-110.833 -80.167 -163.5 -79.5c-57.333 0.666992 -100.833 18.667 -130.5 54s-45.5 82.666 -47.5 141.999
c-2.66699 70 12.5 149 45.5 237s74.833 169 125.5 243s108.834 136.333 174.501 187s127.5 76 185.5 76h1c20 -2 37 -8.16699 51 -18.5s21 -23.5 21 -39.5c30.667 29.333 54 45 70 47z" />
    <glyph glyph-name="D" unicode="D" horiz-adv-x="715" 
d="M-13 581c27.333 63.333 71.8389 119.666 133.506 168.999s128.5 86 200.5 110s142.333 36 211 36c77.333 0 140.666 -16.5 189.999 -49.5s74.666 -81.833 75.999 -146.5c0.666992 -66 -19.5 -143.5 -60.5 -232.5s-90.833 -171.167 -149.5 -246.5
s-121.834 -139.333 -189.501 -192s-125.5 -79 -173.5 -79c-36.667 0 -63.667 21.333 -81 64c-2.66699 -13.333 -5.33398 -37 -8.00098 -71c-0.666992 -4.66699 -2.66699 -8.83398 -6 -12.501s-7 -5.5 -11 -5.5c-3.33301 0 -6 1 -8 3c-20.667 10 -39.167 24.167 -55.5 42.5
s-24.5 37.166 -24.5 56.499c0 0.666992 0.166992 1.66699 0.5 3s0.5 2.66602 0.5 3.99902c12 99.333 52.833 210.833 122.5 334.5s140.5 220.834 212.5 291.501c20 20 42.167 36.167 66.5 48.5s43.5 18.5 57.5 18.5c10.667 0 16 -3.33301 16 -10v-2
c-54 -38.667 -110.667 -107 -170 -205s-106 -195 -140 -291c52 22.667 100 34 144 34c30 0 50.667 -4.66699 62 -14c3.33301 -2.66699 4.33301 -5.83398 3 -9.50098s-4 -5.5 -8 -5.5h-3c-30.667 0 -64.5 -7.66699 -101.5 -23s-68 -34.666 -93 -57.999
s-35.5 -45.333 -31.5 -66c6.66699 -12.667 15.834 -23.667 27.501 -33s21.5 -13.666 29.5 -12.999c34 0.666992 86.667 42 158 124c84.667 98 153.334 203 206.001 315c67.333 144 77.666 243.333 30.999 298c-20 23.333 -50.667 37 -92 41c-16 1.33301 -28 2 -36 2
c-44.667 0 -89.334 -6.83301 -134.001 -20.5s-88.334 -34.667 -131.001 -63s-80 -68.166 -112 -119.499s-54 -110.666 -66 -177.999c-2 -4.66699 -4.66699 -7 -8 -7c-8.66699 0 -18.834 10 -30.501 30s-20.167 41.667 -25.5 65s-5 44.333 1 63z" />
    <glyph glyph-name="E" unicode="E" horiz-adv-x="492" 
d="M483 797c-76 -134 -142.999 -261.334 -200.999 -382.001c-1.33301 -2 -0.666016 -3.66699 2.00098 -5c14 -4.66699 30 -7 48 -7c30 0 58.333 4.66699 85 14h2c3.33301 0 6 -1.5 8 -4.5s2 -5.83301 0 -8.5c-16.667 -33.333 -35 -55.833 -55 -67.5s-49.333 -17.5 -88 -17.5
c-18.667 0 -32.334 1 -41.001 3c-2 0 -3.33301 -1 -4 -3c-69.333 -156.667 -91.333 -252 -66 -286c10 -13.333 30.667 -20 62 -20c46.667 0 94.667 9.33301 144 28c1.33301 0.666992 3.66602 1 6.99902 1c8 0 12.667 -4 14 -12v-2c-1.33301 -18 -25 -39.833 -71 -65.5
s-96.333 -38.5 -151 -38.5c-18 0 -31.333 0.666992 -40 2c-30.667 3.33301 -55.667 15.5 -75 36.5s-27.666 52.167 -24.999 93.5c5.33301 91.333 119 329.333 341 714c0.666992 1.33301 0.333984 2.83301 -0.999023 4.5s-2.66602 2.16699 -3.99902 1.5
c-48.667 -17.333 -93.667 -43.833 -135 -79.5s-74.666 -73.667 -99.999 -114s-45.333 -76.666 -60 -108.999s-25 -61.166 -31 -86.499c-2 -5.33301 -4.66699 -8 -8 -8c-7.33301 0 -17 7.66699 -29 23s-21 32.5 -27 51.5s-5 37.167 3 54.5c44.667 78 92.5 142.333 143.5 193
s99.167 86.5 144.5 107.5s93.166 36.333 143.499 46s95.166 13.667 134.499 12s80.5 -1.33398 123.5 0.999023s78.167 8.5 105.5 18.5c0.666992 0.666992 1.5 0.666992 2.5 0s1.5 -1.33398 1.5 -2.00098c4 -12.667 -2.83301 -34.5 -20.5 -65.5s-36.834 -46.5 -57.501 -46.5
c-2.66699 0 -14.334 2.33301 -35.001 7s-46 9.33398 -76 14.001s-58 7 -84 7c-12 0 -21 -0.333008 -27 -1c-0.666992 0 -1.66699 -0.666992 -3 -2z" />
    <glyph glyph-name="F" unicode="F" 
d="M488 796c-78 -83.333 -154.67 -210.34 -230.003 -381.007c18 -8.66699 37.667 -13 59 -13c24.667 0 48.334 5.66699 71.001 17c0.666992 0.666992 2 1 4 1c4 0 7.16699 -1.66699 9.5 -5s2.5 -7 0.5 -11c-13.333 -22 -27.333 -39.333 -42 -52
c-27.333 -20.667 -60 -31 -98 -31c-13.333 0 -25.333 1.33301 -36 4c-61.333 -152.667 -97.333 -277.667 -108 -375c-2 -13.333 -8.33301 -20 -19 -20c-3.33301 0 -6 0.666992 -8 2c-19.333 11.333 -36.166 27.333 -50.499 48s-21.5 41.334 -21.5 62.001
c0 6 0.333008 10.333 1 13c20 124.667 75.333 266.834 166 426.501s168.667 266.834 234 321.501c-8 0.666992 -20 1 -36 1c-88.667 0 -164 -24.167 -226 -72.5s-99.333 -107.833 -112 -178.5c-2 -4.66699 -4.66699 -7 -8 -7c-8 0 -18.333 10 -31 30s-21.667 41.667 -27 65
s-3.66602 44.333 5.00098 63c20 34.667 43.833 63.834 71.5 87.501s58.5 41.334 92.5 53.001s67.5 19.834 100.5 24.501s69.833 7 110.5 7c32 0 78 -1.83301 138 -5.5s102.667 -5.5 128 -5.5c60.667 0 107 7.33301 139 22c4.66699 -2 3.5 -13.833 -3.5 -35.5
s-18.333 -43 -34 -64s-31.5 -31.5 -47.5 -31.5c-4 0 -8.5 0.666992 -13.5 2s-11.667 3.5 -20 6.5s-26.333 7.33301 -54 13s-62.5 11.834 -104.5 18.501z" />
    <glyph glyph-name="G" unicode="G" horiz-adv-x="619" 
d="M387 527c-12 1.33301 -20.1641 11.8311 -24.4971 31.498s-4 44.167 1 73.5s14.833 57 29.5 83c10 17.333 11 34.166 3 50.499s-21 25.166 -39 26.499c-52.667 4 -118 -49.333 -196 -160c-73.333 -103.333 -132.333 -216 -177 -338
c-43.333 -118.667 -52 -192.667 -26 -222c6.66699 -7.33301 16 -11 28 -11c20 0.666992 51.833 22.334 95.5 65.001s81.5 88.667 113.5 138h-2c-22.667 1.33301 -40.5 10.5 -53.5 27.5s-15.833 38.833 -8.5 65.5c2.66699 8 9 12 19 12c21.333 -4 52.333 -6 93 -6h63
c58.667 0 92 -6 100 -18c8 -11.333 8 -29.333 0 -54s-15 -37 -21 -37c-0.666992 0 -1.16699 0.333008 -1.5 1s-0.833008 1.33398 -1.5 2.00098s-2.33398 1.5 -5.00098 2.5s-6 2 -10 3s-10 1.83301 -18 2.5s-17.667 1 -29 1c-28 -52 -49 -92.667 -63 -122
s-26.167 -63 -36.5 -101s-12.833 -70.333 -7.5 -97c0.666992 -5.33301 -0.666016 -10 -3.99902 -14s-7.66602 -6 -12.999 -6c-2 0 -3.66699 0.333008 -5 1c-19.333 6 -37.333 19.333 -54 40s-22.334 41.334 -17.001 62.001c3.33301 14 22.166 52.667 56.499 116
s52.166 96.666 53.499 99.999c-40 -59.333 -77.333 -109.833 -112 -151.5s-62.334 -72.667 -83.001 -93s-40.834 -36.166 -60.501 -47.499s-33.334 -17.666 -41.001 -18.999s-17.167 -2.33301 -28.5 -3c-68 -3.33301 -105.667 34 -113 112
c-8 86.667 19.333 199.334 82 338.001c65.333 144 145.333 263.333 240 358c93.333 94.667 182 142 266 142c26 -3.33301 44.333 -13.166 55 -29.499s14.667 -35.833 12 -58.5l5 5c2.66699 3.33301 5.5 6.5 8.5 9.5s7 6.66699 12 11s10 8.16602 15 11.499
s10.833 6.66602 17.5 9.99902s13 5.66602 19 6.99902h6c25.333 0 47.333 -4.66699 66 -14c10.667 -5.33301 12.667 -10.666 6 -15.999c-33.333 -24.667 -63.166 -51.667 -89.499 -81s-46.666 -55.833 -60.999 -79.5s-26.333 -45.5 -36 -65.5s-16.5 -35.667 -20.5 -47
s-6.66699 -17 -8 -17z" />
    <glyph glyph-name="H" unicode="H" horiz-adv-x="802" 
d="M627 -74c-8 0 -17.833 1.33789 -29.5 4.00488s-24.334 7 -38.001 13s-25 15.5 -34 28.5s-13.167 27.833 -12.5 44.5c0.666992 12 4.16699 28.333 10.5 49s15 44.167 26 70.5l30 70l32 70c12.333 26.333 19.5 41.833 21.5 46.5l-124 -1
c-55.333 -113.333 -118.5 -205.333 -189.5 -276s-136.833 -106.334 -197.5 -107.001c-58.667 -0.666992 -102 23.666 -130 72.999c-18 32 -23.667 59.667 -17 83c3.33301 12 9.66602 17.667 18.999 17c24.667 -7.33301 50.667 -11 78 -11c44 0 86.333 12.167 127 36.5
s76.334 55.166 107.001 92.499s62 83.166 94 137.499s60 106.5 84 156.5s51.667 104.833 83 164.5s59.666 108.834 84.999 147.501c-46 -10 -89.667 -27.833 -131 -53.5s-76.166 -54.334 -104.499 -86.001s-53.666 -66 -75.999 -103s-39.666 -71 -51.999 -102
s-21.5 -59.833 -27.5 -86.5c-2 -4.66699 -4.66699 -7 -8 -7c-10 0 -21.167 15 -33.5 45s-17.5 58.333 -15.5 85c0 13.333 2.33301 23.666 7 30.999c32 69.333 76.833 129.833 134.5 181.5s116 89 175 112s114.833 34.5 167.5 34.5h3c14 0 26.5 -6.33301 37.5 -19
s13.5 -26.667 7.5 -42c-22 -38.667 -57.5 -113.667 -106.5 -225s-75.5 -171 -79.5 -179l125 -1c50.667 106 104 201.667 160 287s97.333 137 124 155c22 14 47 21 75 21c22 0 34 -3 36 -9c0.666992 -2 -0.333008 -3.66699 -3 -5c-24 -15.333 -61.667 -61.5 -113 -138.5
s-102.5 -163.667 -153.5 -260s-93.333 -196 -127 -299s-45.5 -183.167 -35.5 -240.5c-0.666992 -3.33301 -4.33398 -5 -11.001 -5z" />
    <glyph glyph-name="I" unicode="I" horiz-adv-x="305" 
d="M613 857c-54.667 -40 -112.002 -101.67 -172.002 -185.003s-113 -170.5 -159 -261.5s-85.667 -178.667 -119 -263s-54.666 -151.833 -63.999 -202.5c-3.33301 -14 -11 -21 -23 -21c-1.33301 0 -4 0.666992 -8 2c-20.667 12.667 -38.5 29.834 -53.5 51.501
s-21.167 43.5 -18.5 65.5c0 0.666992 0.333008 2 1 4s1 3.66699 1 5c31.333 132.667 92.166 271.834 182.499 417.501s191.166 261.5 302.499 347.5c-48.667 -11.333 -94.167 -30 -136.5 -56s-77.666 -54 -105.999 -84s-54.166 -63.5 -77.499 -100.5
s-41.166 -69.833 -53.499 -98.5s-22.833 -56.667 -31.5 -84c-2 -4.66699 -5 -7 -9 -7c-10.667 0 -21.5 15 -32.5 45s-14.833 58.333 -11.5 85c1.33301 12.667 4.33301 23.334 9 32.001c32 57.333 72.833 108.666 122.5 153.999s100 80 151 104s98.333 42 142 54
s81.167 18 112.5 18c22.667 0 38 -3 46 -9h1c3.33301 -3.33301 5 -6.66602 5 -9.99902c0 -2 -0.333008 -3 -1 -3z" />
    <glyph glyph-name="J" unicode="J" horiz-adv-x="629" 
d="M736 929c-46.667 -59.333 -103.165 -147.995 -169.498 -265.995s-115.833 -228.667 -148.5 -332c23.333 -6 42.333 -16.5 57 -31.5s23.834 -30.833 27.501 -47.5s5.16699 -32 4.5 -46s-3.33398 -25 -8.00098 -33c-3.33301 -5.33301 -6 -8 -8 -8
s-6.33301 4.83301 -13 14.5s-18.5 20.834 -35.5 33.501s-38.833 21.667 -65.5 27c-18 -38 -34.5 -70.333 -49.5 -97s-33.833 -54.834 -56.5 -84.501s-46 -53.5 -70 -71.5s-53 -33 -87 -45s-70.667 -18 -110 -18c-54 1.33301 -88.333 24.666 -103 69.999
c-14.667 47.333 -4.33398 101 30.999 161c43.333 73.333 110 127 200 161c48.667 18 101 28.333 157 31l72 148.5c19.333 38.333 44.5 85.166 75.5 140.499s62.833 105 95.5 149s66.667 82.667 102 116c-83.333 -24 -160.166 -65.333 -230.499 -124
s-125 -121.334 -164 -188.001s-61.5 -130.334 -67.5 -191.001c-2 -5.33301 -5 -8 -9 -8c-12 0 -25.667 14.333 -41 43s-23 57.667 -23 87c0 10.667 1.66699 21 5 31c26.667 68 64 128.5 112 181.5s100.167 94.667 156.5 125s112.333 53.166 168 68.499s109.167 23 160.5 23
c3.33301 0 7.66602 -0.166992 12.999 -0.5s9.66602 -0.5 12.999 -0.5c5.33301 -0.666992 8.83301 -3 10.5 -7s1.16699 -8 -1.5 -12zM19.002 -27.9951c27.333 -0.666992 61.168 22.167 101.501 68.5s81.166 116.833 122.499 211.5c-111.333 -10 -193 -47.333 -245 -112
c-33.333 -41.333 -46 -81 -38 -119c10 -30.667 29.667 -47 59 -49z" />
    <glyph glyph-name="K" unicode="K" horiz-adv-x="568" 
d="M344 397c-4.66699 -35.333 -7.83008 -70.167 -9.49707 -104.5s-1.66699 -71.666 0 -111.999s8.66699 -73.833 21 -100.5s29.833 -42.334 52.5 -47.001c2.66699 -1.33301 8.33398 -2 17.001 -2c31.333 0 63.666 14 96.999 42c1.33301 -4 3 -17 5 -39
s-9.5 -45.833 -34.5 -71.5s-60.167 -38.5 -105.5 -38.5c-32.667 0 -60.667 9 -84 27s-40.666 40.833 -51.999 68.5s-19.333 59.5 -24 95.5s-6.33398 70.667 -5.00098 104s5 66 11 98c-70.667 -150.667 -114 -269.667 -130 -357c-3.33301 -12 -10.333 -18 -21 -18
c-29.333 0 -52 17 -68 51s-21.667 58 -17 72c23.333 78 60.166 165.167 110.499 261.5s112.166 192.5 185.499 288.5s146.333 170.667 219 224c-48.667 -10.667 -95.5 -29.167 -140.5 -55.5s-83.5 -55.333 -115.5 -87s-61.167 -66.167 -87.5 -103.5
s-47.166 -71.166 -62.499 -101.499s-27 -58.5 -35 -84.5c-2 -4.66699 -5 -7 -9 -7c-10.667 0 -21.334 14.667 -32.001 44s-14.334 57 -11.001 83c2 13.333 5.33301 24 10 32c32.667 58 74.167 109.333 124.5 154s101.333 78.834 153 102.501s99.5 41.334 143.5 53.001
s82 17.5 114 17.5c36.667 0 54 -6.33301 52 -19c0 -1.33301 -0.666992 -3 -2 -5c-38 -24.667 -81.167 -67.834 -129.5 -129.501s-89.833 -121.334 -124.5 -179.001s-65 -112.167 -91 -163.5c-4 -0.666992 4.83301 14 26.5 44s51.667 66.333 90 109
s80.666 85.5 126.999 128.5s97 79.667 152 110s104.833 45.5 149.5 45.5c2 0 4.83301 -0.166992 8.5 -0.5s6.16699 -0.5 7.5 -0.5c30 -2.66699 51.667 -19.334 65 -50.001c10 -22 11 -36.333 3 -43c-2 -1.33301 -4 -2 -6 -2c-13.333 5.33301 -29.333 8 -48 8
c-38 0 -82 -12 -132 -36s-98.167 -54 -144.5 -90s-89.166 -73 -128.499 -111s-71 -73 -95 -105z" />
    <glyph glyph-name="L" unicode="L" horiz-adv-x="562" 
d="M196 0c10.667 2.66699 32.002 9.16504 64.002 19.498s62 18.666 90 24.999s53.667 9.5 77 9.5c25.333 0 45.166 -3.5 59.499 -10.5s23.333 -15.333 27 -25s4.16699 -21 1.5 -34s-6.33398 -24.167 -11.001 -33.5s-10 -18.666 -16 -27.999c-2 -3.33301 -5.33301 -5 -10 -5
c-2.66699 0 -5.66699 1 -9 3c-18.667 18.667 -49 29.334 -91 32.001c-2.66699 0 -6.33398 0.166992 -11.001 0.5s-8 0.5 -10 0.5c-28 0 -74.667 -5 -140 -15s-112 -15 -140 -15c-40.667 0.666992 -68 18.334 -82 53.001c-8 20 -8.66699 33.667 -2 41
c1.33301 1.33301 2.66602 2 3.99902 2h1c5.33301 0 15.166 -5.16699 29.499 -15.5s31.833 -16.166 52.5 -17.499c-16 42.667 2.66699 122.167 56 238.5s119.833 231.166 199.5 344.499s147.5 191.333 203.5 234c-48 -11.333 -93 -30 -135 -56s-76.833 -54.167 -104.5 -84.5
s-52.5 -64 -74.5 -101s-38.833 -69.833 -50.5 -98.5s-21.5 -56.667 -29.5 -84c-2 -5.33301 -5 -8 -9 -8c-8 0 -17 10.167 -27 30.5s-16.833 42.666 -20.5 66.999s-1.16699 46.5 7.5 66.5c30.667 58.667 70.334 110.5 119.001 155.5s98.334 79.333 149.001 103
s97.5 41.334 140.5 53.001s80.5 17.5 112.5 17.5c36.667 0 54.334 -6 53.001 -18l-1 -3c-53.333 -33.333 -114 -103.5 -182 -210.5s-128 -218.5 -180 -334.5s-89 -215.667 -111 -299z" />
    <glyph glyph-name="M" unicode="M" horiz-adv-x="1076" 
d="M952 -62c-6.66699 -8.66699 -17.666 -12.9932 -32.999 -12.9932c-24.667 0 -47.834 9.83301 -69.501 29.5s-32.5 47.167 -32.5 82.5c-0.666992 44 14.5 102 45.5 174s65.833 140 104.5 204s77 131.167 115 201.5s61.667 123.833 71 160.5
c-30.667 -24 -71.167 -70 -121.5 -138s-96.5 -134.5 -138.5 -199.5s-84.333 -122.833 -127 -173.5s-75 -75 -97 -73c-10.667 1.33301 -19.667 11.833 -27 31.5s-11 39.834 -11 60.501c0 15.333 29.167 90.166 87.5 224.499s85.5 214.166 81.5 239.499
c-15.333 -14 -36.166 -45.5 -62.499 -94.5s-53.5 -103.5 -81.5 -163.5s-61.5 -123.833 -100.5 -191.5s-78.5 -129.167 -118.5 -184.5s-85.5 -101 -136.5 -137s-101.833 -53.667 -152.5 -53c-35.333 0.666992 -67 13.667 -95 39s-46 51 -54 77
c-1.33301 5.33301 -0.166016 10.166 3.50098 14.499s8.16699 6.16602 13.5 5.49902c2 0 5 -0.166992 9 -0.5s7 -0.5 9 -0.5c48 0 95.167 12.333 141.5 37s87.666 56.167 123.999 94.5s74.666 84.666 114.999 138.999s76.666 107.166 108.999 158.499
s69.833 106.666 112.5 165.999s82.334 109 119.001 149c-49.333 -10.667 -96.666 -28.334 -141.999 -53.001s-84.833 -52 -118.5 -82s-63.834 -62.167 -90.501 -96.5s-47.667 -66.833 -63 -97.5s-25.666 -58.667 -30.999 -84c-0.666992 -4.66699 -3.33398 -7 -8.00098 -7
c-10.667 0 -22.834 15.167 -36.501 45.5s-20.167 58.833 -19.5 85.5c0 12 2.33301 22.333 7 31c24 52 59.5 99.667 106.5 143s97.167 77.833 150.5 103.5s106.166 45.5 158.499 59.5s99.833 21 142.5 21c19.333 0 35.5 -11.5 48.5 -34.5s21.833 -45.5 26.5 -67.5
c6 -26.667 -6.16699 -80.334 -36.5 -161.001s-61 -154.667 -92 -222s-45.5 -101.333 -43.5 -102c6 -2.66699 30.667 25.833 74 85.5l140.5 199.5c50.333 73.333 101 141.333 152 204s85.833 95.334 104.5 98.001h3c18 0 30.833 -17.667 38.5 -53s6.16699 -65.333 -4.5 -90
c-6.66699 -26 -28.167 -76.333 -64.5 -151l-107.5 -220c-35.333 -72 -64.166 -148.5 -86.499 -229.5s-26.166 -144.833 -11.499 -191.5z" />
    <glyph glyph-name="N" unicode="N" horiz-adv-x="908" 
d="M722 -76c-30 0.666992 -53.1699 13.8291 -69.5029 39.4961s-25.333 60 -27 103s0 89.833 5 140.5s13.333 103.834 25 159.501s22.834 105.667 33.501 150l31 123.5c10 38 15.667 61.333 17 70c-22.667 -38.667 -50.167 -89.834 -82.5 -153.501l-86.5 -174
c-25.333 -52.333 -55.333 -107.833 -90 -166.5s-67.834 -108 -99.501 -148s-67.834 -73.333 -108.501 -100s-81.667 -40 -123 -40c-37.333 0 -69.666 14.333 -96.999 43s-45 57.334 -53 86.001c-0.666992 4 0.333008 7.66699 3 11s6 5 10 5
c54.667 0 105.834 11.333 153.501 34s89 51.667 124 87s71.167 79.5 108.5 132.5s70.333 104.5 99 154.5s63.334 106.833 104.001 170.5s79.334 118.834 116.001 165.501c-53.333 -9.33301 -103.166 -26.5 -149.499 -51.5s-84.666 -53 -114.999 -84s-57.333 -65 -81 -102
s-41.334 -70.833 -53.001 -101.5s-20.167 -59.334 -25.5 -86.001c-2 -4.66699 -5 -7 -9 -7c-11.333 0 -25 14.833 -41 44.5s-24 57.5 -24 83.5c0 11.333 2 21.666 6 30.999c24 52 57.167 99.167 99.5 141.5s87.666 76.333 135.999 102s97.333 45.334 147 59.001
s96.5 20.5 140.5 20.5c48 0 72 -29 72 -87c0 -29.333 -4.66699 -69.166 -14 -119.499s-24.333 -121.166 -45 -212.499s-33.667 -149.666 -39 -174.999c66.667 160.667 135.834 295.167 207.501 403.5s124.167 166.166 157.5 173.499c20 4 36 6 48 6
c12.667 0 19 -2.33301 19 -7c0 -1.33301 -0.666992 -3.33301 -2 -6c-80.667 -98 -165 -241.167 -253 -429.5s-142.667 -350.166 -164 -485.499c-2.66699 -2.66699 -6.33398 -4 -11.001 -4z" />
    <glyph glyph-name="O" unicode="O" horiz-adv-x="609" 
d="M371 887c69.333 0 118.334 -21.3311 147.001 -63.998s39 -94.667 31 -156c-6 -46 -20.333 -100.667 -43 -164s-52.334 -128.5 -89.001 -195.5s-76.667 -129.167 -120 -186.5s-91.333 -104.333 -144 -141s-103.667 -55 -153 -55c-38.667 0 -68.667 11.5 -90 34.5
s-32.333 51.667 -33 86s4 71.5 14 111.5c-33.333 21.333 -54.5 51.166 -63.5 89.499s-6.33301 79.666 8 123.999s35.5 90.666 63.5 138.999s62.167 94.833 102.5 139.5s81.5 84.834 123.5 120.501s85 64.167 129 85.5s83 32 117 32zM20.001 41.002
c46 -2 110.334 52.668 193.001 164.001c81.333 109.333 148.666 227 201.999 353c54 129.333 67.333 209.333 40 240c-8 8.66699 -19 12.667 -33 12c-45.333 -2 -97.5 -25.833 -156.5 -71.5s-112.333 -98.5 -160 -158.5s-88 -120.5 -121 -181.5s-49.5 -107.5 -49.5 -139.5
c22 38 47.667 68.5 77 91.5s59 34.167 89 33.5c-55.333 -50.667 -91.333 -114.334 -108 -191.001c12 -4 23.667 -6 35 -6c38 0 70 14.333 96 43c4.66699 4.66699 8.33398 7 11.001 7c7.33301 0 7.66602 -9.66699 0.999023 -29c-12 -33.333 -34.333 -58 -67 -74
c-18.667 -9.33301 -39 -14 -61 -14c-5.33301 0 -13.333 0.666992 -24 2c0 -52.667 12 -79.667 36 -81z" />
    <glyph glyph-name="P" unicode="P" horiz-adv-x="617" 
d="M329 328c-12 4 -22.3291 9.16504 -30.9961 15.498s-16 13 -22 20s-9.66699 11.167 -11 12.5c-38 -81.333 -69.667 -162.333 -95 -243s-39.666 -144 -42.999 -190c-0.666992 -4.66699 -2.83398 -8.83398 -6.50098 -12.501s-7.83398 -5.5 -12.501 -5.5
c-2 0 -4.33301 0.666992 -7 2c-21.333 11.333 -40.166 26.333 -56.499 45s-24.166 37.334 -23.499 56.001c0 1.33301 0.166992 2.66602 0.5 3.99902s0.5 2.33301 0.5 3c14 100.667 57.333 213.834 130 339.501s146 224.834 220 297.501
c21.333 20.667 44.166 37.167 68.499 49.5s43.833 18.5 58.5 18.5c10 0 15 -3 15 -9v-3c-79.333 -56.667 -157.666 -164.667 -234.999 -324c23.333 -16 49.333 -24 78 -24c28 0 57.333 8 88 24s58.5 36.167 83.5 60.5s47.833 50.333 68.5 78s36.667 54.334 48 80.001
s17.333 46.834 18 63.501c0.666992 36 -10.833 61.5 -34.5 76.5s-59.167 22.5 -106.5 22.5c-244 0 -396.333 -130.333 -457 -391c-2 -4.66699 -5 -7 -9 -7c-10 0 -22.333 15 -37 45s-21.667 58.333 -21 85c0 11.333 2 21.666 6 30.999c29.333 66.667 74.333 126 135 178
s122.667 90.167 186 114.5s122.333 36.5 177 36.5h20c17.333 0 34.666 -0.833008 51.999 -2.5s39.166 -6.5 65.499 -14.5s49.166 -18.667 68.499 -32s36.166 -33.333 50.499 -60s21.166 -58 20.499 -94c-0.666992 -44 -14.667 -88.167 -42 -132.5s-61 -82.333 -101 -114
s-83 -57.5 -129 -77.5s-88 -30 -126 -30c-18.667 0 -36 2.66699 -52 8z" />
    <glyph glyph-name="Q" unicode="Q" horiz-adv-x="650" 
d="M565 677c-6.66699 -60.667 -28.167 -135.001 -64.5 -223.001s-85 -176.333 -146 -265s-123.5 -155.334 -187.5 -200.001c10 -13.333 24 -20.333 42 -21c42 0 76.333 8.66699 103 26c0.666992 0.666992 2 1 4 1s3.5 -1 4.5 -3s0.833008 -4.33301 -0.5 -7
c-14 -18 -34.167 -34.667 -60.5 -50s-51.5 -23.333 -75.5 -24c-35.333 0 -65 12.333 -89 37c-28.667 -12 -58 -18 -88 -18c-47.333 0 -82 18.833 -104 56.5s-27.333 86.5 -16 146.5c0.666992 5.33301 2.33398 13.333 5.00098 24c-44.667 31.333 -67.667 75.333 -69 132
s18.167 119.834 58.5 189.501s87.5 135 141.5 196s114 111.667 180 152s123.667 59.5 173 57.5c70 -3.33301 120.667 -24.166 152 -62.499s43.666 -86.5 36.999 -144.5zM46 29.999c4 0 6.99707 0.334961 8.99707 1.00195c-5.33301 24 -6.33301 44 -3 60
c4.66699 26 12.834 45.167 24.501 57.5s24.167 18.5 37.5 18.5c16.667 0 27.334 -6 32.001 -18c4 -9.33301 6 -25.333 6 -48c71.333 77.333 143 185 215 323c76.667 147.333 115 255.666 115 324.999c0 41.333 -15.667 61.333 -47 60c-45.333 -2 -97.5 -24.667 -156.5 -68
s-113 -94.166 -162 -152.499s-91.167 -117.5 -126.5 -177.5s-54.666 -107.333 -57.999 -142c27.333 56 60.833 100.667 100.5 134s73.5 49.666 101.5 48.999c-45.333 -71.333 -78.833 -140.5 -100.5 -207.5s-30.5 -119.333 -26.5 -157s17 -56.834 39 -57.501z" />
    <glyph glyph-name="R" unicode="R" horiz-adv-x="688" 
d="M344 360c-8 -56.667 -9.50391 -104.837 -4.50391 -144.504s16 -72 33 -97s36 -43.167 57 -54.5s43.833 -17 68.5 -17c38.667 0 72.334 12.667 101.001 38l2 1c2 0 4 -2.16699 6 -6.5s3.5 -9.66602 4.5 -15.999s0.833008 -13.166 -0.5 -20.499
c-6 -35.333 -23.5 -63.166 -52.5 -83.499s-62.167 -30.5 -99.5 -30.5c-26.667 0 -52.167 5.16699 -76.5 15.5s-46.5 27.166 -66.5 50.499s-35 51.5 -45 84.5s-12.833 74.5 -8.5 124.5s17.5 104.667 39.5 164c-2.66699 0 -7 3 -13 9s-10.333 11.667 -13 17
c-38 -80 -69.667 -160.667 -95 -242s-40 -145 -44 -191c0 -5.33301 -2 -9.66602 -6 -12.999s-8.33301 -5 -13 -5c-2 0 -4.33301 0.666992 -7 2c-22.667 12.667 -42.167 28.5 -58.5 47.5s-24.5 38.5 -24.5 58.5c0 0.666992 0.166992 1.66699 0.5 3s0.5 2.66602 0.5 3.99902
c13.333 101.333 56.666 214.333 129.999 339s148 222.667 224 294c22 20.667 45.667 36.834 71 48.501s45.333 17.167 60 16.5c11.333 0 17 -3.66699 17 -11v-2c-82.667 -54.667 -162.667 -161.667 -240 -321c32 -5.33301 61 -8 87 -8c107.333 0 195 33.333 263 100
c51.333 50 77.666 104.333 78.999 163c2 58 -22 100 -72 126c-28.667 14.667 -64 22 -106 22c-70.667 0 -138.167 -14.667 -202.5 -44s-121.5 -75.333 -171.5 -138s-83.333 -137 -100 -223c-2 -6 -4.66699 -8.33301 -8 -7c-11.333 0 -24.666 15.333 -39.999 46
s-22.666 59.667 -21.999 87c0 14 1.66699 24.667 5 32c24.667 54.667 57.334 103.334 98.001 146.001s80.834 75.334 120.501 98.001s81.834 41.667 126.501 57s80.167 25.166 106.5 29.499s49.5 7.16602 69.5 8.49902c6.66699 0.666992 16.334 1 29.001 1
c110 0 189.667 -32.667 239 -98c40.667 -54.667 50.667 -117.667 30 -189c-22.667 -77.333 -74.334 -140.666 -155.001 -189.999c-87.333 -53.333 -195 -80.333 -323 -81z" />
    <glyph glyph-name="S" unicode="S" horiz-adv-x="533" 
d="M577 554c-10 2 -17.6689 8.50195 -23.002 19.502s-8.5 24 -9.5 39s-0.833008 31.333 0.5 49s3.16602 33.667 5.49902 48l6.5 38.5l3 16c2 12.667 -1.33301 24 -10 34s-24 15.333 -46 16c-55.333 0.666992 -100.333 -17.666 -135 -54.999s-53 -85 -55 -143
c-2 -52 2 -105.333 12 -160s20.333 -98.667 31 -132s18.334 -72.333 23.001 -117s1 -82.667 -11 -114c-15.333 -46.667 -43.666 -85.834 -84.999 -117.501s-86.666 -47.5 -135.999 -47.5c-28 0 -56.667 6 -86 18c-45.333 18.667 -76 50.667 -92 96
s-16.333 92.666 -1 141.999s42 90.666 80 123.999c2 2 4.66699 3 8 3c4 0 7.16699 -1.66699 9.5 -5s2.16602 -7 -0.500977 -11c-16 -28 -27.5 -56.167 -34.5 -84.5s-6.66699 -56.333 1 -84s24.834 -48.167 51.501 -61.5c16 -7.33301 32 -11 48 -11
c20.667 0 39.834 5.66699 57.501 17s30.834 28.333 39.501 51c8.66699 19.333 12 49.666 10 90.999s-6.33301 79.833 -13 115.5s-13 78.5 -19 128.5s-8 93.333 -6 130c2.66699 48.667 13.167 92 31.5 130s41.833 68.333 70.5 91s59.5 39.834 92.5 51.501
s66.833 17.5 101.5 17.5c51.333 0 94.666 -11.667 129.999 -35c39.333 26.667 67 40 83 40c10 0 19 -1.16699 27 -3.5s14.5 -5.16602 19.5 -8.49902s9.16699 -7.16602 12.5 -11.499s5.66602 -8.66602 6.99902 -12.999s2.33301 -8.33301 3 -12s1 -6.83398 1 -9.50098l1 -3
c-46.667 -26.667 -84.167 -56.834 -112.5 -90.501s-45.833 -62.834 -52.5 -87.501l-17.5 -63c-5 -17.333 -11.167 -26 -18.5 -26h-3z" />
    <glyph glyph-name="T" unicode="T" horiz-adv-x="326" 
d="M526 820c-62.667 -62.667 -127.329 -154.005 -193.996 -274.005s-120.667 -235.333 -162 -346s-64 -194 -68 -250c-1.33301 -6 -3.5 -11 -6.5 -15s-7.16699 -5.66699 -12.5 -5c-15.333 0 -36.166 16.833 -62.499 50.5s-36.5 63.834 -30.5 90.501
c23.333 104.667 80.5 230.334 171.5 377.001s177.833 262.334 260.5 347.001c10 10 20 19 30 27c-59.333 -1.33301 -113 -10.333 -161 -27s-86.167 -37.667 -114.5 -63s-50.5 -50.166 -66.5 -74.499s-26.667 -48.166 -32 -71.499c-2.66699 -4.66699 -5.66699 -7 -9 -7
c-12 0 -25.833 13.5 -41.5 40.5s-23.167 52.5 -22.5 76.5c1.33301 12.667 4.66602 23.334 9.99902 32.001c28 39.333 66.167 72.166 114.5 98.499s94.166 44 137.499 53s85 13.5 125 13.5h3c25.333 0 71.666 -2.16699 138.999 -6.5s104.333 -6.5 111 -6.5
c93.333 0 158.333 7.66699 195 23h1c1.33301 0 2 -1.33301 2 -4c-0.666992 -16 -11.834 -40 -33.501 -72s-44.5 -48 -68.5 -48c-2.66699 0 -6.66699 0.666992 -12 2c-70.667 20.667 -138.334 33.667 -203.001 39z" />
    <glyph glyph-name="U" unicode="U" horiz-adv-x="760" 
d="M557 -63c-2 -2.66699 -5.66895 -4.00098 -11.002 -4.00098c-19.333 0 -39.333 11.167 -60 33.5s-29.334 51.5 -26.001 87.5c0.666992 15.333 5.33398 33 14.001 53c10 24 25 55.667 45 95c-58.667 -82 -114.834 -147.833 -168.501 -197.5s-105.834 -74.5 -156.501 -74.5
c-42.667 0 -72.834 11.5 -90.501 34.5s-25.5 50.5 -23.5 82.5c2 34 17 74.5 45 121.5s61.667 94.667 101 143l118.5 145.5c39.667 48.667 74.834 99 105.501 151s48.667 98.667 54 140c6 48.667 -10.667 73 -50 73c-77.333 0 -153.666 -38.333 -228.999 -115
s-131.333 -179.667 -168 -309c-2 -4.66699 -5.33301 -7 -10 -7c-11.333 0 -23.333 15 -36 45s-17.667 58 -15 84c1.33301 12.667 4.33301 23.334 9 32.001c58.667 106 136.334 188 233.001 246s193 87 289 87c36.667 0 62.5 -12.333 77.5 -37s15.833 -60.334 2.5 -107.001
c-18.667 -65.333 -81.334 -176.666 -188.001 -333.999c-89.333 -132 -142.666 -212.333 -159.999 -241c-45.333 -78.667 -50.333 -118 -15 -118c17.333 0 35.333 3.66699 54 11s39 19.833 61 37.5l56.5 47c15.667 13.667 36.167 35.5 61.5 65.5l55 65.5l58.5 73l50.5 64.5v1
c72.667 116 143.834 217.667 213.501 305s122.834 139.333 159.501 156c16 7.33301 33 11 51 11c26.667 0 32.667 -9.66699 18 -29c-24 -12.667 -65.833 -58.167 -125.5 -136.5s-120.167 -165.833 -181.5 -262.5s-114.5 -195.167 -159.5 -295.5
s-64.833 -174.833 -59.5 -223.5z" />
    <glyph glyph-name="V" unicode="V" horiz-adv-x="584" 
d="M134 3c0 57.333 35.001 175.672 105.001 355.005c66 167.333 104.667 269.666 116 306.999c32 99.333 31.333 149 -2 149c-36.667 0 -73.334 -16.167 -110.001 -48.5s-67.334 -70.666 -92.001 -114.999s-44.5 -89.333 -59.5 -135s-21.5 -82.5 -19.5 -110.5
c-2.66699 -5.33301 -7 -8 -13 -8c-14 0 -28.667 14.167 -44 42.5s-21.666 57.166 -18.999 86.499c1.33301 12 3 20.667 5 26c28 81.333 76.5 154.5 145.5 219.5s142.833 97.5 221.5 97.5c90 -4 102 -105.333 36 -304c-17.333 -52.667 -58.666 -158.334 -123.999 -317.001
c-43.333 -103.333 -60.666 -160.333 -51.999 -171l2 -2c2.66699 -1.33301 7.66699 3.33398 15 14.001s18.666 29.667 33.999 57l42 78l59 111.5l67 118c30 51.667 55.833 93.667 77.5 126s48 69.333 79 111s59 74.5 84 98.5s52 44.5 81 61.5s55.833 25.5 80.5 25.5
c22 0 47.667 -12.667 77 -38c20 -17.333 25.667 -27.333 17 -30c-40 -6.66699 -85.5 -33.334 -136.5 -80.001s-99.833 -102.334 -146.5 -167.001s-94.167 -134.167 -142.5 -208.5s-90.666 -142.833 -126.999 -205.5s-68.333 -114.834 -96 -156.501
s-45.834 -62.834 -54.501 -63.501c-2.66699 -0.666992 -6.33398 -1 -11.001 -1c-22.667 0 -44.167 7.16699 -64.5 21.5s-30.5 32.833 -30.5 55.5z" />
    <glyph glyph-name="W" unicode="W" horiz-adv-x="871" 
d="M506 -76c-10 -2 -26.665 11.4971 -49.998 40.4971s-35 53.833 -35 74.5c0.666992 35.333 8.83398 80.5 24.501 135.5s39.5 126.5 71.5 214.5s48.333 133.333 49 136c-42.667 -60.667 -92 -143.5 -148 -248.5l-139 -254c-36.667 -64.333 -63 -95.833 -79 -94.5
c-12.667 -0.666992 -27.5 10.333 -44.5 33s-25.167 44.334 -24.5 65.001c0 14 5.66699 39 17 75s25.333 76.667 42 122l55 148.5l56 154c17.333 49 32.166 95.5 44.499 139.5s19.5 78.667 21.5 104s-2.33301 41.333 -13 48c-10 3.33301 -18.667 5 -26 5
c-30 0 -61.167 -18.167 -93.5 -54.5s-60.166 -79 -83.499 -128s-42.833 -95.667 -58.5 -140s-24.834 -77.5 -27.501 -99.5c-4 -6 -8.33301 -9 -13 -9c-15.333 0 -31.666 19 -48.999 57s-21.666 67.333 -12.999 88c22.667 62 49 115.833 79 161.5s60.167 80.667 90.5 105
s59.166 42 86.499 53s53.333 16.5 78 16.5c20 0 36.333 -3 49 -9c32 -14 52 -41.167 60 -81.5s6.33301 -85.666 -5 -135.999s-27.5 -105.833 -48.5 -166.5s-43 -116.667 -66 -168s-43.667 -99.833 -62 -145.5s-28.833 -77.167 -31.5 -94.5
c-1.33301 -1.33301 -1.33301 -2 0 -2s20.166 29.667 56.499 89l146.5 236.5l164 255.5c22 28.667 47 43 75 43c11.333 0 22 -2.16699 32 -6.5s17.667 -9 23 -14s7.66602 -8.83301 6.99902 -11.5c-57.333 -138 -104.5 -258.5 -141.5 -361.5s-60.5 -173.667 -70.5 -212
s-13 -57.5 -9 -57.5c1.33301 0 3 2 5 6c6 10.667 20.667 38.334 44 83.001l58 108.5l64.5 116.5c27.667 50 52.334 92.167 74.001 126.5l76.5 118c29.333 44.333 56.5 81.333 81.5 111s51.167 58.5 78.5 86.5s53.666 49.167 78.999 63.5s49.333 21.833 72 22.5
c16 0.666992 38.333 -7.83301 67 -25.5s39 -31.834 31 -42.501c-56.667 -14.667 -116.334 -55 -179.001 -121s-120.167 -140.667 -172.5 -224l-149.5 -247c-47.333 -81.333 -91 -149.666 -131 -204.999s-72 -83 -96 -83z" />
    <glyph glyph-name="X" unicode="X" horiz-adv-x="885" 
d="M701 494c-3.33301 -24 -9.66309 -57.5029 -18.9961 -100.503l-24.5 -116.5c-7 -34.667 -12.833 -70.167 -17.5 -106.5s-4.83398 -66.833 -0.500977 -91.5s13.833 -41.334 28.5 -50.001c-0.666992 -2 -4 -5 -10 -9s-15 -8 -27 -12s-24.333 -6 -37 -6
c-1.33301 0 -3.33301 0.166992 -6 0.5s-4.66699 0.5 -6 0.5c-16 2 -28.5 7.66699 -37.5 17s-14.667 21.5 -17 36.5s-2.5 32.833 -0.5 53.5s5.5 43.334 10.5 68.001s10.833 50.667 17.5 78l15 64l-82.5 -102c-21 -25.333 -46.667 -53.666 -77 -84.999
s-57.333 -55.5 -81 -72.5s-49.834 -31.5 -78.501 -43.5s-56.667 -17.667 -84 -17c-38.667 1.33301 -70.5 16.5 -95.5 45.5s-31.5 61.5 -19.5 97.5c1.33301 4 4 6 8 6c2 0 4 -1 6 -3c16.667 -16.667 39 -25 67 -25c23.333 0 49.166 6.33301 77.499 19
s62.666 34.334 102.999 65.001s87.333 77 141 139s110.834 136.667 171.501 224c35.333 180.667 28.666 274.334 -20.001 281.001c-1.33301 0 -3 0.166992 -5 0.5s-3.33301 0.5 -4 0.5c-32.667 0 -72.834 -21.667 -120.501 -65s-90.334 -93.333 -128.001 -150
s-62.834 -106 -75.501 -148c-8.66699 0 -18.667 9.5 -30 28.5s-19 40.833 -23 65.5s-1.33301 49 8 73c40.667 74 93.667 135.5 159 184.5s136.333 73.5 213 73.5c26.667 -1.33301 49.167 -12 67.5 -32s30.666 -43.167 36.999 -69.5s11 -53.5 14 -81.5s2.5 -50.667 -1.5 -68
l88 111c20 24.667 43.5 51.667 70.5 81s50.333 50.833 70 64.5s38.834 22.5 57.501 26.5c6.66699 1.33301 11.334 2 14.001 2c17.333 0 32.666 -5.16699 45.999 -15.5s18 -23.5 14 -39.5c-4 2 -8.33301 3 -13 3c-11.333 0 -27.166 -8.33301 -47.499 -25
s-57.166 -56 -110.499 -118s-121.666 -147.667 -204.999 -257z" />
    <glyph glyph-name="Y" unicode="Y" horiz-adv-x="702" 
d="M243 -73c-49.333 0 -84.834 15.9971 -106.501 47.9971s-24.5 64 -8.5 96c1.33301 2.66699 3 4 5 4c2.66699 0 4.66699 -1.66699 6 -5c8.66699 -27.333 21.5 -45.166 38.5 -53.499s41.5 -12.5 73.5 -12.5c24 0.666992 49.333 11.167 76 31.5s51.334 45 74.001 74
s47.667 66.833 75 113.5s50.833 89.334 70.5 128.001l67.5 139c-62 -98.667 -125.667 -187 -191 -265s-113.666 -117 -144.999 -117c-34.667 0 -61.167 9.83301 -79.5 29.5s-25.833 43.5 -22.5 71.5c3.33301 32 17.333 72 42 120s52.834 95.667 84.501 143l92.5 140
c30 46 53.667 88.5 71 127.5s23 69.167 17 90.5c-52.667 -9.33301 -101.834 -26.666 -147.501 -51.999s-83.5 -53.333 -113.5 -84s-57.333 -65.334 -82 -104.001s-43.334 -73 -56.001 -103s-23.334 -59.333 -32.001 -88c-2 -4.66699 -5 -7 -9 -7
c-10.667 0 -21.834 15.167 -33.501 45.5s-16.167 58.833 -13.5 85.5c1.33301 12.667 4.33301 23.334 9 32.001c38 70.667 88.833 131.834 152.5 183.501s127.334 89.167 191.001 112.5s124.167 35 181.5 35c22.667 0 37.334 -17.667 44.001 -53s3.66699 -66 -9 -92
c-10.667 -22.667 -38 -73.5 -82 -152.5l-120 -223.5c-36 -70 -55.333 -116.667 -58 -140c-1.33301 -11.333 1.33398 -17 8.00098 -17c20 0 63.5 40.167 130.5 120.5s137.167 170.5 210.5 270.5c40 82 74.167 145.667 102.5 191s54.5 75 78.5 89c9.33301 6 21.666 9 36.999 9
c16.667 0 31.5 -4 44.5 -12s19.167 -17 18.5 -27c-26 -22.667 -51.833 -54.334 -77.5 -95.001s-48.667 -84.167 -69 -130.5l-66 -150.5l-69 -157c-22.333 -50.667 -48 -99.834 -77 -147.501s-59 -89.167 -90 -124.5s-67.5 -63.666 -109.5 -84.999s-86.667 -32 -134 -32z" />
    <glyph glyph-name="Z" unicode="Z" horiz-adv-x="572" 
d="M78 561c31.333 66.667 79.666 128.166 144.999 184.499s137.666 100.5 216.999 132.5s156 48 230 48c36 0 63.333 -5.83301 82 -17.5s26.334 -35.167 23.001 -70.5c-4.66699 -48 -26.834 -102.5 -66.501 -163.5s-86.167 -117.5 -139.5 -169.5
s-107.833 -98.833 -163.5 -140.5s-102.834 -70.834 -141.501 -87.501c41.333 14.667 83.333 22 126 22c7.33301 0 14.833 -0.5 22.5 -1.5s17.334 -2.83301 29.001 -5.5s22.167 -6.5 31.5 -11.5s19 -11.833 29 -20.5s17.167 -19.167 21.5 -31.5s7.33301 -27 9 -44
s-1.16602 -36.833 -8.49902 -59.5c-14.667 -44.667 -39.5 -82.667 -74.5 -114s-71.667 -53.166 -110 -65.499s-76.833 -18.5 -115.5 -18.5c-24.667 0 -47 2.66699 -67 8c-28 7.33301 -49.667 18.833 -65 34.5s-23 32.5 -23 50.5s11.167 36.833 33.5 56.5
s54.833 36.5 97.5 50.5c10 3.33301 19 5 27 5c11.333 0 21.333 -2 30 -6s13.334 -8.33301 14.001 -13c-42.667 -0.666992 -83.667 -16.334 -123 -47.001c-30.667 -23.333 -42 -42.333 -34 -57c2.66699 -6 9 -10 19 -12c8.66699 -2 18 -3 28 -3
c35.333 0 74.333 8.83301 117 26.5s81.834 43.834 117.501 78.501s57.5 72.334 65.5 113.001c5.33301 28.667 -8.33398 44.334 -41.001 47.001c-4.66699 0.666992 -11.334 1 -20.001 1c-22 0 -43.667 -3.66699 -65 -11s-41.5 -16 -60.5 -26s-32.833 -16.333 -41.5 -19
c-10.667 -4.66699 -26 -7 -46 -7c-22.667 0 -41 4.66699 -55 14s-18.667 24.666 -14 45.999c20 16 59.167 50.167 117.5 102.5l201.5 185.5c76 71.333 140.167 137.666 192.5 198.999s73.5 100.333 63.5 117c-7.33301 11.333 -22.666 17 -45.999 17
c-31.333 0 -70 -9.66699 -116 -29s-95 -47.166 -147 -83.499s-103.167 -86.5 -153.5 -150.5s-90.5 -135 -120.5 -213c0 -1.33301 -0.666992 -2 -2 -2c-4.66699 0 -10.834 7.16699 -18.501 21.5s-13.667 33.333 -18 57s-2.16602 51.167 6.50098 82.5z" />
    <glyph glyph-name="bracketleft" unicode="[" horiz-adv-x="441" 
d="M644 827c-9.33301 -6 -30.333 -9 -63 -9c-10.667 0 -22.167 0.333008 -34.5 1s-24.5 1.5 -36.5 2.5s-19.667 1.5 -23 1.5l-160 -385.5l-181 -436.5c15.333 -0.666992 37.666 -1 66.999 -1l78 1c-10 -62 -21 -96.333 -33 -103c-12 -7.33301 -40 -11 -84 -11
c-22.667 0 -48.5 0.833008 -77.5 2.5s-52.5 3.5 -70.5 5.5l-26 3c269.333 677.333 406.666 1021 411.999 1031c2 4 4 6.66699 6 8c8.66699 6 35.334 9 80.001 9c22.667 0 48.834 -0.666992 78.501 -2s53.5 -2.66602 71.5 -3.99902l28 -3
c-9.33301 -66.667 -20 -103.334 -32 -110.001z" />
    <glyph glyph-name="backslash" unicode="\" horiz-adv-x="407" 
d="M392 31c0 -7.33301 -1.33594 -15.665 -4.00293 -24.998c-1.33301 -6.66699 -3.5 -13.167 -6.5 -19.5s-6.33301 -11.833 -10 -16.5s-7.66699 -8.83398 -12 -12.501s-8.83301 -6.83398 -13.5 -9.50098s-9 -5 -13 -7s-8 -3.66699 -12 -5l-10.5 -3.5l-7.5 -2.5h-3h-7h-9h-2
c-32.667 149.333 -64.667 284.5 -96 405.5s-57.666 214.5 -78.999 280.5s-40.166 121.333 -56.499 166s-28.5 74 -36.5 88l-12 22c1.33301 2.66699 2.33301 4.33398 3 5.00098c7.33301 10 22 15 44 15c32 0 56.333 -4.33301 73 -13l-1 2
c0.666992 -0.666992 1 -1.33398 1 -2.00098l31 -94.5l66 -202.5l74.5 -232.5l66.5 -216c18.667 -63 29.334 -103.833 32.001 -122.5z" />
    <glyph glyph-name="bracketright" unicode="]" horiz-adv-x="501" 
d="M263 -101c-2.66699 -4 -4.66602 -6.33398 -5.99902 -7.00098c-12 -7.33301 -40 -11 -84 -11c-10 0 -21 0.166992 -33 0.5s-23.333 0.833008 -34 1.5l-32 2c-10.667 0.666992 -20.334 1.5 -29.001 2.5s-16.334 1.83301 -23.001 2.5s-12 1.33398 -16 2.00098h-6
c8 60.667 17.667 95 29 103c8 5.33301 33.333 8 76 8c33.333 0 62 -1 86 -3l173.5 417.5l160.5 385.5l-146 3c11.333 68 23 106 35 114c8.66699 6 35.334 9 80.001 9c22.667 0 48.667 -0.833008 78 -2.5s53.333 -3.16699 72 -4.5l27 -2
c-12.667 -57.333 -52.5 -170.5 -119.5 -339.5l-192 -465.5c-61 -141.333 -93.167 -213.333 -96.5 -216z" />
    <glyph glyph-name="asciicircum" unicode="^" horiz-adv-x="332" 
d="M376 471c-24 23.333 -35.998 40.3311 -35.998 50.998v4c1.33301 4.66699 5.33301 11.834 12 21.501s15.667 21.167 27 34.5l31 36.5l34.5 39.5l27.5 31c3.33301 3.33301 7 5 11 5c5.33301 0 9.66602 -2.66699 12.999 -8l97 -190c0 -5.33301 -4 -11.666 -12 -18.999
s-16 -13.333 -24 -18l-12 -7c-26.667 53.333 -49.334 101 -68.001 143z" />
    <glyph glyph-name="underscore" unicode="_" horiz-adv-x="460" 
d="M-178 -83c18.667 52 36.998 79.999 54.998 83.999h8c10 0 53.833 -2.66699 131.5 -8s137.834 -8 180.501 -8c64.667 0 104 5.33301 118 16c-2 -5.33301 -4.83301 -12.166 -8.5 -20.499s-11 -19.333 -22 -33s-21.5 -20.5 -31.5 -20.5c-2.66699 0 -30.167 0.333008 -82.5 1
s-97.166 1 -134.499 1c-130.667 0 -202 -4 -214 -12z" />
    <glyph glyph-name="grave" unicode="`" horiz-adv-x="353" 
d="M405 700l-125 97c46.667 16 71 24 73 24c6.66699 0 13 -3 19 -9l95 -95c-14.667 -16.667 -27.667 -25 -39 -25c-6 0 -13.667 2.66699 -23 8z" />
    <glyph glyph-name="a" unicode="a" horiz-adv-x="515" 
d="M622 341c5.33301 0 9.99512 -4.33301 13.9951 -13c0.666992 -0.666992 0.833984 -3.66699 0.500977 -9s-1.16602 -9 -2.49902 -11c-14 -26 -32.667 -55.667 -56 -89s-49.5 -67.166 -78.5 -101.499s-59.5 -63 -91.5 -86s-60.333 -34.5 -85 -34.5
c-17.333 0 -31 8.83301 -41 26.5s-15 39.834 -15 66.501c0 19.333 3 38.666 9 57.999c-0.666992 -0.666992 -6.16699 -7.83398 -16.5 -21.501s-21.166 -26.834 -32.499 -39.501s-24.666 -26.167 -39.999 -40.5s-31.833 -26 -49.5 -35s-34.5 -13.5 -50.5 -13.5
c-29.333 0 -51.166 10.5 -65.499 31.5s-21.5 48.833 -21.5 83.5c0 48.667 12.667 102.5 38 161.5s60.5 110.667 105.5 155s91.5 66.5 139.5 66.5c48.667 0 89.667 -27.667 123 -83c17.333 20 32.666 30.333 45.999 31h6c16.667 0 31.167 -3.66699 43.5 -11
s18.5 -18.666 18.5 -33.999c-37.333 -38.667 -74.166 -93.834 -110.499 -165.501s-54.5 -123.5 -54.5 -155.5c0 -8 1 -13.167 3 -15.5s5.66699 -3.5 11 -3.5c27.333 0.666992 64.333 28.334 111 83.001s90 116.667 130 186c4 8.66699 8 13 12 13zM384.995 386l-3.99707 8
c-2.66699 5.33301 -5.33398 10 -8.00098 14s-6.33398 8.33301 -11.001 13s-10.167 8.5 -16.5 11.5s-13.5 4.5 -21.5 4.5h-1c-30.667 0 -64.334 -22.5 -101.001 -67.5s-67 -95 -91 -150s-36 -98.833 -36 -131.5c0 -27.333 8.66699 -41 26 -41c51.333 0 131 97 239 291
c4.66699 10.667 13 26.667 25 48z" />
    <glyph glyph-name="b" unicode="b" horiz-adv-x="450" 
d="M333 488l3.99805 -0.000976562c32.667 0 56.834 -10.5 72.501 -31.5s23.5 -49.167 23.5 -84.5c0 -49.333 -12.833 -102.333 -38.5 -159s-61.667 -106 -108 -148s-94.833 -63 -145.5 -63c-20.667 0 -40.334 6.83301 -59.001 20.5s-31.334 33.167 -38.001 58.5
c-13.333 -31.333 -21.666 -57.333 -24.999 -78c-24 0 -40.5 3 -49.5 9s-13.5 20.333 -13.5 43c20 107.333 72.5 249.5 157.5 426.5s160.167 294.167 225.5 351.5c20.667 16 53.334 24 98.001 24c32.667 0 49 -4 49 -12c0 -1.33301 -1.33301 -3.33301 -4 -6
c-47.333 -33.333 -112.666 -114.5 -195.999 -243.5s-143 -236.5 -179 -322.5c92.667 142.667 168 214.334 226 215.001zM304.998 416.999c-31.333 0 -73.832 -34.333 -127.499 -103s-88.834 -128 -105.501 -178c8 -45.333 29.333 -68 64 -68c36.667 0 76.667 35 120 105
c40 64.667 64.333 125 73 181c6 42 -2 63 -24 63z" />
    <glyph glyph-name="c" unicode="c" horiz-adv-x="366" 
d="M123 5c-42 0 -72.9971 11.834 -92.9971 35.501s-30 55.5 -30 95.5c0 49.333 13.167 102.833 39.5 160.5s61.5 107 105.5 148s88 61.5 132 61.5c14.667 0 27.5 -1.5 38.5 -4.5s18.833 -6 23.5 -9s9.16699 -6.66699 13.5 -11s7.16602 -6.83301 8.49902 -7.5
c21.333 28.667 40 43 56 43c11.333 0 20.5 -1 27.5 -3s11.333 -4.5 13 -7.5s2.33398 -6 2.00098 -9s-1.33301 -5.83301 -3 -8.5s-3.16699 -4.66699 -4.5 -6l-1 -1c-30.667 -30 -52.834 -58.333 -66.501 -85s-21.834 -44.834 -24.501 -54.501s-7.33398 -14.5 -14.001 -14.5
c-3.33301 0 -6.5 1.33301 -9.5 4s-5.66699 7.16699 -8 13.5s-3.83301 13.833 -4.5 22.5s0.5 20 3.5 34s8.16699 29 15.5 45c-2 0.666992 -6 1 -12 1c-42 0 -87.167 -35.5 -135.5 -106.5s-74.833 -143.5 -79.5 -217.5c-2.66699 -46 12.333 -69.333 45 -70h3
c24.667 0 49.167 6.16699 73.5 18.5s50.5 33 78.5 62s50.167 53.5 66.5 73.5s40.5 51.333 72.5 94l19 25c6 7.33301 11.333 11 16 11s7 -3 7 -9c0 -2 -1 -5.66699 -3 -11c-56.667 -94 -117.167 -169.667 -181.5 -227s-127.5 -86 -189.5 -86z" />
    <glyph glyph-name="d" unicode="d" horiz-adv-x="497" 
d="M341 84c0 -14 5.66504 -20.9971 16.998 -20.9971c26 0 62.167 28.167 108.5 84.5s89.166 118.833 128.499 187.5c4.66699 8 9.66699 12 15 12c7.33301 0 11.666 -5 12.999 -15c0.666992 -5.33301 -0.666016 -11.333 -3.99902 -18
c-14.667 -26.667 -33.334 -56.5 -56.001 -89.5s-48.5 -66.667 -77.5 -101s-59.167 -63 -90.5 -86s-59.333 -34.5 -84 -34.5c-16.667 0 -30.167 9 -40.5 27s-15.5 40.333 -15.5 67c0 22 3 41 9 57c-1.33301 -1.33301 -6.66602 -8 -15.999 -20s-19.166 -23.667 -29.499 -35
s-22.5 -23.333 -36.5 -36s-29.333 -22.834 -46 -30.501s-33 -11.5 -49 -11.5c-29.333 0 -51.166 10.5 -65.499 31.5s-21.5 49.167 -21.5 84.5c0 48.667 11.667 101 35 157s56.333 104.667 99 146s88 62 136 62c46 0 84.667 -23.667 116 -71l61.5 112l56.5 101.5l43 74
c16.667 28.333 30.834 51.166 42.501 68.499s23.167 32.666 34.5 45.999c24 18.667 56 28 96 28c29.333 0 44 -5.33301 44 -16c0 -2.66699 -1.66699 -5.66699 -5 -9c-60.667 -64 -145.5 -191.5 -254.5 -382.5s-163.5 -314.167 -163.5 -369.5zM343.998 350.003l26.001 47
c0 1.33301 -1 3 -3 5c-14 28 -32.333 42 -55 42h-1c-30.667 -0.666992 -63.334 -22 -98.001 -64s-63 -89 -85 -141s-33 -94.333 -33 -127c0 -28 9 -42 27 -42c19.333 0 43.166 17.5 71.499 52.5s58.833 79.5 91.5 133.5s52.334 85.333 59.001 94z" />
    <glyph glyph-name="e" unicode="e" horiz-adv-x="364" 
d="M494 317c-56.667 -94.667 -117.167 -170.666 -181.5 -227.999s-127.833 -86 -190.5 -86c-41.333 0 -72 12 -92 36s-30 55.667 -30 95c0 49.333 13.167 102.833 39.5 160.5s61.5 107 105.5 148s88 61.5 132 61.5c66 0 99 -33.667 99 -101c0 -52 -21.333 -101.667 -64 -149
s-89 -71 -139 -71c-20 0 -38.667 4.33301 -56 13c-10.667 -27.333 -16 -53 -16 -77c0 -44.667 20 -67 60 -67c20.667 0 42 5.16699 64 15.5s41.5 22.166 58.5 35.499s37.333 33.333 61 60s42.167 48.667 55.5 66l58 76l15 20c4.66699 6 10.334 9 17.001 9
c9.33301 0 10.666 -5.66699 3.99902 -17zM309 453.001c-17.333 0.666992 -45.501 -20 -84.501 -62s-64.5 -81.667 -76.5 -119c10.667 -10 23.667 -15 39 -15c34 0 68 23.333 102 70c29.333 40.667 43.333 74.667 42 102c-1.33301 15.333 -8.66602 23.333 -21.999 24z" />
    <glyph glyph-name="f" unicode="f" horiz-adv-x="260" 
d="M142 495c34.667 0 52.001 -4.99902 52.001 -14.999c0 -2.66699 -1.66699 -5.33398 -5 -8.00098c-74 -60.667 -144.667 -158.334 -212 -293.001c1.33301 -3.33301 2.33301 -10.5 3 -21.5s0.833984 -21.167 0.500977 -30.5s-0.833008 -14 -1.5 -14
c31.333 2.66699 61.5 14 90.5 34s51.667 40.5 68 61.5s32.166 43.5 47.499 67.5s24 37 26 39c3.33301 3.33301 7.33301 5 12 5s8.83398 -1.66699 12.501 -5s4.5 -7.66602 2.5 -12.999c-2.66699 -6.66699 -7.83398 -16.834 -15.501 -30.501s-19.667 -31.667 -36 -54
s-34.333 -43.166 -54 -62.499s-43.667 -36.833 -72 -52.5s-57.166 -24.834 -86.499 -27.501c-5.33301 -36.667 -13.333 -74.5 -24 -113.5s-24.334 -79.5 -41.001 -121.5s-37.834 -76.5 -63.501 -103.5s-53.167 -40.5 -82.5 -40.5c-17.333 0 -31.5 7.16699 -42.5 21.5
s-14.167 31.5 -9.5 51.5c26 106.667 66.333 219.334 121 338.001c-16 13.333 -24.167 29 -24.5 47s6.5 34.833 20.5 50.5s29.667 23.5 47 23.5c3.33301 0 8.33301 -0.666992 15 -2c36 69.333 63.833 120 83.5 152s41.167 61.667 64.5 89c24 18.667 58.667 28 104 28z
M-96.999 66.001l-7.99414 -13.999l-17.5 -32c-6.33301 -11.333 -14.333 -27.5 -24 -48.5l-29 -65.5c-9.66699 -22.667 -20.334 -50 -32.001 -82s-22.834 -64.667 -33.501 -98h1c25.333 16 47.666 38.667 66.999 68s33.666 59.166 42.999 89.499s16.666 59.5 21.999 87.5
s8.66602 51 9.99902 69z" />
    <glyph glyph-name="g" unicode="g" horiz-adv-x="463" 
d="M394 413c-17.333 -12 -40.3311 -44.5 -68.998 -97.5l-91.5 -178c-32.333 -65.667 -67.166 -130.667 -104.499 -195s-78.333 -117.833 -123 -160.5s-88.334 -63.667 -131.001 -63c-40.667 0.666992 -70.334 12.167 -89.001 34.5s-28 46.166 -28 71.499c0 17.333 3 26 9 26
h1c16.667 -35.333 41 -53 73 -53c79.333 0 178 115.333 296 346c-68 -93.333 -125 -140 -171 -140c-28 0 -49.833 11 -65.5 33s-22.834 52 -21.501 90c1.33301 36.667 8.66602 75.834 21.999 117.501s31.333 81.334 54 119.001s51.5 69 86.5 94s72.167 37.833 111.5 38.5
c24 0.666992 48.5 -9 73.5 -29s39.5 -38 43.5 -54c15.333 24.667 35 37.667 59 39h8c16 0 28.833 -2.5 38.5 -7.5s15.834 -10.333 18.501 -16s2.66699 -10.834 0 -15.501zM252.002 385c-17.333 32 -42.333 48.002 -75 48.002
c-40.667 -2.66699 -84.5 -44.834 -131.5 -126.501s-70.833 -153.834 -71.5 -216.501c0 -24 9.33301 -36 28 -36c38 0 97.333 60.333 178 181c5.33301 10 13.833 27.333 25.5 52l32 67c9.66699 20 14.5 30.333 14.5 31z" />
    <glyph glyph-name="h" unicode="h" horiz-adv-x="458" 
d="M273 4c-15.333 0 -29.499 8.33301 -42.499 25s-19.5 36.334 -19.5 59.001v9c3.33301 38 15.333 81 36 129s40.667 89.167 60 123.5s29 54.833 29 61.5c0 4 -1.66699 6 -5 6h-1c-12 -0.666992 -38.333 -20 -79 -58s-83.334 -85.5 -128.001 -142.5s-76 -107.167 -94 -150.5
c-2 -4.66699 -4.33301 -12.167 -7 -22.5l-7 -27.5c-2 -8 -3.33301 -12.333 -4 -13c-5.33301 -1.33301 -9.66602 -2 -12.999 -2c-16.667 0 -31.334 7.33301 -44.001 22s-17 32 -13 52c46 153.333 107.667 306 185 458s140.666 251.333 189.999 298
c25.333 18.667 60.333 28 105 28c34 0 51 -5 51 -15c0 -4 -1.66699 -6.66699 -5 -8c-121.333 -106.667 -242.333 -298 -363 -574c50.667 64.667 100.834 117.5 150.501 158.5s87.167 61.5 112.5 61.5h3c16.667 -1.33301 32.334 -10 47.001 -26s22.334 -35.667 23.001 -59v-1
c0 -18.667 -23.167 -70.334 -69.5 -155.001s-69.5 -134.667 -69.5 -150c0 -2.66699 2 -4 6 -4h4c19.333 0 42.666 14.333 69.999 43s51.833 60.334 73.5 95.001l59.5 95c18 28.667 28.333 43 31 43c6.66699 0 11.334 -2 14.001 -6c1.33301 -1.33301 1.66602 -5 0.999023 -11
s-2 -11 -4 -15c-0.666992 -2 -6.83398 -13.5 -18.501 -34.5s-28 -48 -49 -81s-43.333 -65 -67 -96s-49 -57.833 -76 -80.5s-51.167 -34.334 -72.5 -35.001z" />
    <glyph glyph-name="i" unicode="i" horiz-adv-x="241" 
d="M308 490c-5.33301 -14 -18.666 -21.001 -39.999 -21.001c-18.667 0 -35.334 5.5 -50.001 16.5s-18.667 23.5 -12 37.5s20.667 21 42 21c18.667 0 34.667 -5.16699 48 -15.5s17.333 -23.166 12 -38.499zM354 345.999c6.66699 0 9.99805 -4.99902 9.99805 -14.999
c0 -3.33301 -1.33301 -8.33301 -4 -15c-21.333 -38.667 -47.5 -80.167 -78.5 -124.5s-68.333 -87 -112 -128s-81.5 -61.5 -113.5 -61.5h-1c-36.667 0.666992 -55 24.667 -55 72c0 40 11.833 90.333 35.5 151s50.334 113.167 80.001 157.5s52.834 66.5 69.501 66.5
c22 0 38.833 -4 50.5 -12s17.5 -17 17.5 -27c0 -2.66699 -0.333008 -4.33398 -1 -5.00098c-37.333 -39.333 -74.166 -94.833 -110.499 -166.5s-54.5 -123.834 -54.5 -156.501c0 -11.333 5.33301 -17 16 -17c24 0.666992 60.167 29.334 108.5 86.001
s91.166 117.667 128.499 183c5.33301 8 10 12 14 12z" />
    <glyph glyph-name="j" unicode="j" horiz-adv-x="216" 
d="M-187 513c6.66699 14 20.668 21.001 42.001 21.001c18 0 33.667 -5.33301 47 -16s17.333 -23.334 12 -38.001c-4.66699 -14 -17.667 -21 -39 -21c-19.333 0 -36.333 5.5 -51 16.5s-18.334 23.5 -11.001 37.5zM-261.999 394.001c18 28 40.998 41.999 68.998 41.999
c16.667 0 30.334 -4.5 41.001 -13.5s13.667 -18.167 9 -27.5c-22 -24 -46.167 -59.167 -72.5 -105.5s-50.5 -93.666 -72.5 -141.999s-47.5 -99 -76.5 -152s-57.333 -99.833 -85 -140.5s-60.167 -74.167 -97.5 -100.5s-75.666 -39.5 -114.999 -39.5h-1
c-40.667 0.666992 -70.334 12.5 -89.001 35.5s-28 47.167 -28 72.5c0 17.333 3 26 9 26h1c24 -24 57 -36.333 99 -37c28.667 -0.666992 57 9.5 85 30.5s53.333 47.667 76 80s45.834 70.666 69.501 114.999s44.667 86.833 63 127.5l59.5 126.5
c21.333 43.667 40 77.834 56 102.501z" />
    <glyph glyph-name="k" unicode="k" horiz-adv-x="462" 
d="M569 357c4.66699 0 7.66797 -1.83691 9.00098 -5.50391s1.33301 -8 0 -13s-2.83301 -9.33301 -4.5 -13s-2.83398 -6.16699 -3.50098 -7.5c-13.333 -23.333 -28 -47.166 -44 -71.499s-36.667 -51.666 -62 -81.999s-50.833 -56.833 -76.5 -79.5s-54.5 -42.167 -86.5 -58.5
s-63 -24.833 -93 -25.5h-3c-40.667 0 -69.834 18.167 -87.501 54.5s-25.5 78.5 -23.5 126.5v10c-34.667 -86.667 -55.334 -149 -62.001 -187c-2.66699 -0.666992 -6 -1 -10 -1c-17.333 0 -33 5.5 -47 16.5s-20.667 28.5 -20 52.5c0 6 0.333008 10.333 1 13
c55.333 166 117.833 314.333 187.5 445s134.5 230 194.5 298c30 21.333 66.333 32 109 32c32.667 0 48.334 -6.33301 47.001 -19c-0.666992 -2.66699 -2.33398 -5.66699 -5.00098 -9c-102.667 -106 -214 -270 -334 -492c33.333 42 77.333 77.167 132 105.5
s101.667 42.5 141 42.5c24.667 0 41.667 -6.33301 51 -19s9.33301 -33 0 -61c-24.667 -60 -66.167 -108.167 -124.5 -144.5s-109.166 -54.5 -152.499 -54.5c-8 0 -15 1 -21 3c-2.66699 -18.667 -3.5 -39.667 -2.5 -63s7.5 -44.666 19.5 -63.999s27 -28.666 45 -27.999
c94.667 6 193.334 98.333 296.001 277c8.66699 14.667 18.667 22 30 22zM175.001 283.996c6 -2 12.332 -2.99902 18.999 -2.99902c40 0 92.333 24.667 157 74c48 36.667 75.333 66 82 88c2.66699 9.33301 -0.666016 14.666 -9.99902 15.999
c-40 0 -85.833 -19.5 -137.5 -58.5s-88.5 -77.833 -110.5 -116.5z" />
    <glyph glyph-name="l" unicode="l" horiz-adv-x="232" 
d="M71 79c0 -14 3.99902 -21.0039 11.999 -21.0039c25.333 2 61.666 31.5 108.999 88.5s90.333 119.167 129 186.5c4.66699 8 9.66699 12 15 12c4.66699 0 8.66699 -4.33301 12 -13c2.66699 -6.66699 1.66699 -14 -3 -22c-15.333 -28 -33.666 -57.667 -54.999 -89
s-46.166 -64.666 -74.499 -99.999s-58.666 -64.166 -90.999 -86.499s-61.833 -33.5 -88.5 -33.5c-36 0 -54 23.333 -54 70c0 42.667 15.333 103.667 46 183s66.667 157.833 108 235.5s81.166 148.334 119.499 212.001s67.166 106.834 86.499 129.501
c24.667 18 58.667 27 102 27c36.667 0 55 -5 55 -15c0 -2.66699 -1.66699 -5 -5 -7c-44.667 -38 -101.167 -111.5 -169.5 -220.5s-127.666 -216.667 -177.999 -323s-75.5 -177.5 -75.5 -213.5z" />
    <glyph glyph-name="m" unicode="m" horiz-adv-x="778" 
d="M595 -3l-1 0.00878906c-14.667 0 -28.5 7.66699 -41.5 23s-19.5 33.666 -19.5 54.999v8c3.33301 36 15.333 76.667 36 122s40.5 84.166 59.5 116.499s28.5 51.833 28.5 58.5c0 3.33301 -1.66699 5 -5 5c-12.667 -0.666992 -39.167 -18.834 -79.5 -54.501
s-82.666 -80.334 -126.999 -134.001s-75.5 -100.834 -93.5 -141.501l-27 -54c-14.667 0.666992 -28.167 8.66699 -40.5 24s-18.5 33.666 -18.5 54.999v7c3.33301 36.667 15.333 77.5 36 122.5s40.5 83.667 59.5 116s28.5 51.833 28.5 58.5c0 3.33301 -1.66699 5 -5 5
c-12.667 -0.666992 -39.167 -18.834 -79.5 -54.501s-82.666 -80.334 -126.999 -134.001s-75.5 -100.834 -93.5 -141.501c-3.33301 -8 -6.33301 -17.167 -9 -27.5s-4.83398 -18 -6.50098 -23s-3.83398 -7.83301 -6.50098 -8.5h-5c-22.667 -0 -40.5 8.33301 -53.5 25
s-19.5 33.334 -19.5 50.001v2c-0.666992 52.667 13.333 112.834 42 180.501s61.5 124.834 98.5 171.501s67.167 71 90.5 73c47.333 0 71 -15 71 -45c0 -3.33301 -0.333008 -5 -1 -5c-39.333 -21.333 -77.333 -64.333 -114 -129s-65 -125.667 -85 -183
c56.667 89.333 118 163.333 184 222s116.333 88 151 88h3c17.333 -1.33301 33.166 -9.33301 47.499 -24s21.833 -33.334 22.5 -56.001v-1c0 -15.333 -12.667 -46.666 -38 -93.999c46 51.333 90.5 92.666 133.5 123.999s75.833 47 98.5 47h3
c16.667 -1.33301 32.334 -9.5 47.001 -24.5s22.334 -33.5 23.001 -55.5c0 -18 -24 -69.833 -72 -155.5s-72 -135.834 -72 -150.501c0 -6 2.33301 -9 7 -9c23.333 -0.666992 53.666 22.5 90.999 69.5s70.833 94.333 100.5 142s46.5 71.5 50.5 71.5
c6.66699 -0.666992 11 -1.66699 13 -3c2.66699 -2 4.5 -4.16699 5.5 -6.5s1.33301 -4.5 1 -6.5s-0.833008 -4 -1.5 -6s-1 -3.33301 -1 -4c0 -1.33301 -5.83301 -12.333 -17.5 -33s-27.834 -46.334 -48.501 -77.001s-43 -61 -67 -91s-50.167 -55.667 -78.5 -77
s-54.166 -32.333 -77.499 -33z" />
    <glyph glyph-name="n" unicode="n" horiz-adv-x="552" 
d="M295 87l-0.00683594 9c4 39.333 17.833 83.5 41.5 132.5s46.5 91.167 68.5 126.5s33 56.333 33 63c0 4 -2 6 -6 6c-14 -0.666992 -43.667 -20.5 -89 -59.5s-93.166 -87.667 -143.499 -146s-85.833 -109.5 -106.5 -153.5c-4 -8.66699 -7.5 -18.5 -10.5 -29.5l-7 -25
c-1.66699 -5.66699 -4.16699 -8.83398 -7.5 -9.50098h-5c-24.667 0 -44.5 9 -59.5 27s-22.167 35.667 -21.5 53v4c3.33301 47.333 19.166 104.166 47.499 170.499s61 124.166 98 173.499s67.833 74.666 92.5 75.999h11c20 0 35.833 -3.66699 47.5 -11
s17.5 -14.666 17.5 -21.999s-0.666992 -12.666 -2 -15.999c-35.333 -23.333 -72.833 -66.5 -112.5 -129.5s-65.5 -116.5 -77.5 -160.5c60 84.667 127.667 159.834 203 225.501s131 98.5 167 98.5h4c18.667 -1.33301 35.834 -10 51.501 -26s23.834 -36.333 24.501 -61
c-0.666992 -20.667 -28.5 -77.5 -83.5 -170.5s-82.5 -147.5 -82.5 -163.5c0 -6 2.66699 -9 8 -9c22.667 0 49.667 16 81 48s59.333 67.167 84 105.5l69 105.5c21.333 32 34.333 48 39 48c8.66699 0 13 -3.33301 13 -10c0 -1.33301 -0.166992 -3 -0.5 -5s-1 -4 -2 -6
s-1.5 -3.33301 -1.5 -4c-0.666992 -2 -7.66699 -14.167 -21 -36.5s-31.666 -50.666 -54.999 -84.999s-48.166 -67.833 -74.499 -100.5s-54.666 -60.667 -84.999 -84s-57.166 -35.333 -80.499 -36c-16.667 0 -32.167 8.5 -46.5 25.5s-21.166 37.5 -20.499 61.5z" />
    <glyph glyph-name="o" unicode="o" 
d="M396 323c-69.333 -150.667 -149.669 -232 -241.002 -244c-58 -51.333 -109.667 -77 -155 -77c-13.333 0 -26.666 2 -39.999 6c-62 16.667 -91.333 62.334 -88 137.001c3.33301 68 30.666 138.333 81.999 211c50.667 73.333 106 119.333 166 138
c15.333 4.66699 30.666 7 45.999 7c2 0 4.5 -0.166992 7.5 -0.5s5.16699 -0.5 6.5 -0.5c36 -4 62.5 -18 79.5 -42s24.333 -53.5 22 -88.5s-10.666 -72.833 -24.999 -113.5s-33.833 -80.334 -58.5 -119.001c16.667 4.66699 36.334 17.167 59.001 37.5
s42.334 41.166 59.001 62.499s32 41.833 46 61.5s21.333 29.834 22 30.501c1.33301 1.33301 3 2 5 2s3.83301 -1 5.5 -3s2.16699 -3.66699 1.5 -5zM204.997 441c-4 1.33301 -7.33203 2 -9.99902 2c-30.667 0 -70.334 -30.667 -119.001 -92
c-50.667 -65.333 -83.667 -128 -99 -188c-14 -55.333 -4.33301 -87.333 29 -96c2 -0.666992 5 -1 9 -1c17.333 0 30.666 6.66699 39.999 20c-12.667 7.33301 -19 18 -19 32c0.666992 12.667 5 23 13 31s17.333 12 28 12c14 0 24 -7.66699 30 -23
c14 11.333 28.167 28.666 42.5 51.999s26.833 48.333 37.5 75s19.334 52.834 26.001 78.501s9.5 47.5 8.5 65.5s-6.5 28.667 -16.5 32z" />
    <glyph glyph-name="p" unicode="p" horiz-adv-x="505" 
d="M323 364c-0.666992 -27.333 -6.49707 -57.332 -17.4971 -89.999s-26.5 -65 -46.5 -97s-43 -61.333 -69 -88s-56.167 -48.167 -90.5 -64.5s-69.5 -24.5 -105.5 -24.5h-11c-26 1.33301 -48.333 13.666 -67 36.999s-24 58.666 -16 105.999
c-30.667 -52.667 -57.834 -107.167 -81.501 -163.5s-39.167 -102.5 -46.5 -138.5s-4 -56.667 10 -62c2.66699 0 5.16699 -0.333008 7.5 -1s4.5 -1.5 6.5 -2.5s3 -2.16699 3 -3.5s-0.666992 -3 -2 -5c-20 -24 -44.667 -36 -74 -36c-17.333 0 -32 5 -44 15
s-18.667 24.667 -20 44c-2.66699 38.667 20.5 111.834 69.5 219.501s103.833 210 164.5 307s105 151.167 133 162.5c18.667 8 35 12 49 12c13.333 0 26.333 -3.66699 39 -11c2.66699 -1.33301 4.33398 -3.66602 5.00098 -6.99902s-0.333008 -6 -3 -8
c-6.66699 -4.66699 -13.834 -11.334 -21.501 -20.001s-13.834 -16.334 -18.501 -23.001l-7 -10h1l2 1c50.667 43.333 101 65 151 65c30.667 0 55.167 -9.66699 73.5 -29s27.166 -47.666 26.499 -84.999zM209.003 433.001
c-33.333 0.666992 -76.1641 -21.499 -128.497 -66.499s-99.166 -99.833 -140.499 -164.5c-2.66699 -8 -4.83398 -18.833 -6.50098 -32.5s-1.83398 -29.334 -0.500977 -47.001s7.66602 -32.667 18.999 -45s27.666 -18.5 48.999 -18.5c37.333 0 81.666 37.333 132.999 112
c48 68.667 79.333 132.667 94 192c10.667 46 4.33398 69.333 -18.999 70z" />
    <glyph glyph-name="q" unicode="q" horiz-adv-x="455" 
d="M190 -258c0.666992 -6 -3.66211 -12.334 -12.9951 -19.001s-20.666 -10 -33.999 -10c-8 0 -16 1.33301 -24 4c-22.667 8 -35.834 23.5 -39.501 46.5s1.66602 51.667 15.999 86s29.666 66.5 45.999 96.5s36.833 65.5 61.5 106.5s41.667 70.5 51 88.5
c-68 -93.333 -125 -140 -171 -140c-28 0 -49.833 11 -65.5 33s-22.834 52 -21.501 90c1.33301 36.667 8.66602 75.834 21.999 117.501s31.166 81.334 53.499 119.001s51 69 86 94s72.5 37.833 112.5 38.5c23.333 0.666992 47.5 -8.83301 72.5 -28.5
s39.833 -37.834 44.5 -54.501c14 24.667 33.667 37.667 59 39h8c16 0 28.833 -2.5 38.5 -7.5s15.667 -10.333 18 -16s2.5 -10.834 0.5 -15.501c-12 -7.33301 -47.5 -64.666 -106.5 -171.999s-113 -215 -162 -323s-66.5 -165.667 -52.5 -173zM118.004 51.999
c37.333 0 97 60.002 179 180.002l25 52l32 68l15 30c-16.667 32 -41.667 48 -75 48c-40.667 -2.66699 -84.5 -44.834 -131.5 -126.501s-70.833 -153.834 -71.5 -216.501c0 -23.333 9 -35 27 -35z" />
    <glyph glyph-name="r" unicode="r" horiz-adv-x="330" 
d="M157 0c-20 0 -38.0029 7.49805 -54.0029 22.498s-24.333 33.167 -25 54.5c-0.666992 14.667 2.83301 33.334 10.5 56.001s15.834 42.834 24.501 60.501l40 78c18 34.333 31 59.833 39 76.5c8.66699 18 1 37 -23 57c-0.666992 0.666992 -1.66699 1 -3 1
c-3.33301 0 -5.33301 -1.33301 -6 -4c-7.33301 -22 -35 -69.5 -83 -142.5s-78.333 -109.5 -91 -109.5c-5.33301 0 -9.16602 3.33301 -11.499 10s-1.16602 12.667 3.50098 18c34.667 46 63.334 88 86.001 126s38.334 67.833 47.001 89.5s14.5 39.667 17.5 54s4.5 25 4.5 32
s0.666992 11.167 2 12.5c6 8 12.667 12 20 12c1.33301 0 4.66602 -0.666992 9.99902 -2c6 -2 14.833 -11 26.5 -27s29.167 -31.333 52.5 -46c23.333 -14 33.333 -38.333 30 -73c-2.66699 -23.333 -16.667 -61 -42 -113s-46 -96.667 -62 -134s-17.667 -56.333 -5 -57
c16.667 -0.666992 37.667 10.5 63 33.5s51 52 77 87l65 90.5c17.333 25.333 32 48 44 68c1.33301 2 3.66602 3 6.99902 3c6 0 11 -2.16699 15 -6.5s4.33301 -9.83301 1 -16.5c-44 -86 -92.5 -159.333 -145.5 -220s-97.833 -91 -134.5 -91z" />
    <glyph glyph-name="s" unicode="s" horiz-adv-x="346" 
d="M246 446c-18 0.666992 -30.8291 -9.83203 -38.4961 -31.499s-11.167 -49.167 -10.5 -82.5s-0.166016 -69.333 -2.49902 -108s-6.33301 -74.667 -12 -108s-19.334 -61 -41.001 -83s-51.167 -33 -88.5 -33c-28 0 -51.833 8.33301 -71.5 25s-33.167 36.5 -40.5 59.5
s-10.833 46.167 -10.5 69.5s4.83301 42 13.5 56c2 4 5 6 9 6c5.33301 0 7.33301 -2.66699 6 -8c0 -4 -0.333008 -7 -1 -9c89.333 133.333 154 222.666 194 267.999c18.667 34.667 46 52 82 52c13.333 0 24.833 -2 34.5 -6s16.167 -8.16699 19.5 -12.5s6.5 -9.33301 9.5 -15
s5.16699 -9.16699 6.5 -10.5v1c0.666992 0.666992 4.66699 6.16699 12 16.5s14.5 17.666 21.5 21.999s15.833 6.5 26.5 6.5c30.667 -0.666992 49 -5.66699 55 -15c1.33301 -2 1 -3.33301 -1 -4c-18 -11.333 -34.333 -24.666 -49 -39.999s-25.834 -29.666 -33.501 -42.999
s-14.334 -25.833 -20.001 -37.5s-10.334 -20.834 -14.001 -27.501s-7.16699 -10 -10.5 -10c-12.667 0.666992 -21.167 6.33398 -25.5 17.001s-5.83301 22.167 -4.5 34.5s1.16602 23.666 -0.500977 33.999s-6.5 15.833 -14.5 16.5zM27.0039 86.001
c16 0.666992 29.332 6.99902 39.999 18.999s18.834 29.667 24.501 53s10.167 46.333 13.5 69s6.83301 50.334 10.5 83.001s7.5 59 11.5 79c-38 -48.667 -92.667 -131 -164 -247c10 -37.333 31.333 -56 64 -56z" />
    <glyph glyph-name="t" unicode="t" horiz-adv-x="233" 
d="M335 650c18 0 32.001 -0.996094 42.001 -2.99609c23.333 -2.66699 39.333 -12.167 48 -28.5s13.667 -38.166 15 -65.499l-4 2c-2 1.33301 -4.83301 3 -8.5 5s-8.16699 4.16699 -13.5 6.5s-11.333 4.66602 -18 6.99902s-13.834 4.33301 -21.501 6
s-16.167 3.16699 -25.5 4.5s-18.666 2 -27.999 2c-6 0 -15 -0.666992 -27 -2c-58 -98 -110.167 -198.333 -156.5 -301s-69.5 -171 -69.5 -205c0 -14 4 -21 12 -21c24.667 0.666992 60.834 30 108.501 88s90.5 120.333 128.5 187c4.66699 8 9.66699 12 15 12
c6 0 10.667 -4.33301 14 -13c0.666992 -1.33301 0.666992 -4.33301 0 -9s-1.33398 -8.33398 -2.00098 -11.001c-16 -28.667 -34.333 -58.5 -55 -89.5s-45.5 -64.333 -74.5 -100s-59.667 -64.834 -92 -87.501s-62.166 -34 -89.499 -34c-36.667 0 -55 23 -55 69
c0 47.333 19.333 117.166 58 209.499s85.334 188.833 140.001 289.5c-15.333 -1.33301 -30.333 -2.33301 -45 -3h-8c-18 0 -34.333 3.16699 -49 9.5s-25.834 14 -33.501 23s-14 18 -19 27s-8.16699 16.833 -9.5 23.5l-3 9c0 5.33301 1.33301 8 4 8l3 -3
c2.66699 -2.66699 7 -5.66699 13 -9s14 -6.5 24 -9.5s24.333 -5.66699 43 -8s40 -3.5 64 -3.5c9.33301 0 26.666 0.666992 51.999 2c56.667 97.333 98.667 162.666 126 195.999c24.667 18 59 27 103 27c36 0 54 -5 54 -15c0 -2 -1.66699 -4.66699 -5 -8
c-46.667 -34.667 -98.334 -96 -155.001 -184z" />
    <glyph glyph-name="u" unicode="u" horiz-adv-x="510" 
d="M504 331c4 8 9.99902 12.001 17.999 12.001c6 0 10.333 -2.33301 13 -7s2.33398 -10.667 -0.999023 -18c-16.667 -30 -36 -61 -58 -93s-47.833 -66 -77.5 -102s-61.5 -65.5 -95.5 -88.5s-65.667 -34.5 -95 -34.5c-55.333 0 -72.333 50.333 -51 151
c-74 -100 -140.667 -150 -200 -150c-47.333 0 -68 36.333 -62 109c6 71.333 32 149.666 78 234.999c42 78.667 82.333 125 121 139c5.33301 2 10.333 3.33301 15 4c2 0 4.33301 0.166992 7 0.5s4.66699 0.5 6 0.5c16.667 0 30.167 -3.16699 40.5 -9.5
s16.166 -13.833 17.499 -22.5c0 -2 -1 -3.66699 -3 -5c-26 -18 -65.167 -68.833 -117.5 -152.5s-78.833 -152.834 -79.5 -207.501c0 -29.333 7.66699 -44 23 -44c38.667 0 98.334 62 179.001 186c16.667 45.333 33.834 85 51.501 119s32.834 59.333 45.501 76
s25.167 29.834 37.5 39.501s21.166 15.5 26.499 17.5s9.33301 3 12 3h12c18 0 32.5 -2.83301 43.5 -8.5s16.167 -13.5 15.5 -23.5c-23.333 -20 -57.333 -69.167 -102 -147.5s-72 -151.833 -82 -220.5c-2 -17.333 3.66699 -26 17 -26h1c29.333 2 67.166 29.5 113.499 82.5
s89.833 114.833 130.5 185.5z" />
    <glyph glyph-name="v" unicode="v" 
d="M144 463c-47.333 -58.667 -90.1641 -136.339 -128.497 -233.006s-50.166 -153.667 -35.499 -171c2.66699 -2.66699 5.66699 -4 9 -4c9.33301 0 22.666 13.333 39.999 40s37.166 59.667 59.499 99s46.333 79.333 72 120s54.667 77.334 87 110.001
s63.833 53.334 94.5 62.001c8.66699 2.66699 19.334 4 32.001 4c26.667 0 42 -4.66699 46 -14c1.33301 -4 -1.33398 -8.33301 -8.00098 -13c-28 -13.333 -58.833 -38.666 -92.5 -75.999s-65.334 -77.166 -95.001 -119.499l-88.5 -125c-29.333 -41 -58.333 -75 -87 -102
s-54.334 -40.5 -77.001 -40.5c-5.33301 0 -11.333 2.16699 -18 6.5s-13.5 11.833 -20.5 22.5s-12.833 23.834 -17.5 39.501s-6.5 36.334 -5.5 62.001s5.33301 54 13 85s21.167 68.667 40.5 113s43.666 91.833 72.999 142.5c8.66699 14 26.334 21 53.001 21
c27.333 0 45.333 -5.33301 54 -16c3.33301 -4.66699 3.33301 -9 0 -13z" />
    <glyph glyph-name="w" unicode="w" horiz-adv-x="686" 
d="M536 461c5.33301 12.667 19.6592 18.999 42.9922 18.999c14.667 0 27.834 -2.83301 39.501 -8.5s16.5 -12.5 14.5 -20.5c-6.66699 -28 -23.5 -66.333 -50.5 -115s-59.5 -98.5 -97.5 -149.5s-81.667 -94.833 -131 -131.5s-95.666 -55 -138.999 -55
c-30 0 -50.5 14 -61.5 42s-11.5 63.667 -1.5 107c-76 -99.333 -143 -149 -201 -149c-46.667 0 -67 36.333 -61 109c6 72 31.667 150.333 77 235c43.333 78.667 84.333 125 123 139c4.66699 1.33301 9.33398 2.33301 14.001 3c3.33301 0.666992 8.33301 1 15 1
c16 0 28.833 -3 38.5 -9s15.167 -13.667 16.5 -23c0 -2 -0.666992 -3.66699 -2 -5c-14 -9.33301 -36.167 -34.166 -66.5 -74.499s-59.666 -88.5 -87.999 -144.5s-42.833 -102.667 -43.5 -140c0 -30 7.66699 -45 23 -45c39.333 0 99 62 179 186
c16.667 45.333 33.834 85 51.501 119s32.834 59.167 45.501 75.5s25.334 29.666 38.001 39.999s21.334 16.333 26.001 18s8.66699 2.83398 12 3.50098h9c18.667 0 33.834 -3 45.501 -9s17.167 -14 16.5 -24c-22 -11.333 -55.667 -59.333 -101 -144
c-54.667 -102 -83.334 -177.333 -86.001 -226c-2 -24.667 5 -36.667 21 -36c23.333 0.666992 67.5 51 132.5 151s114.833 187 149.5 261z" />
    <glyph glyph-name="x" unicode="x" horiz-adv-x="413" 
d="M492 345c5.33301 0 8.16504 -3.66797 8.49805 -11.001s-1.83398 -15.333 -6.50098 -24c-26 -56.667 -71 -122.5 -135 -197.5s-119.333 -112.5 -166 -112.5c-26.667 1.33301 -45.334 15.5 -56.001 42.5s-13.667 58.833 -9 95.5c-56 -60 -93.167 -97.167 -111.5 -111.5
s-33.166 -21.5 -44.499 -21.5c-13.333 0 -22.833 4.33301 -28.5 13s-8.16699 17.334 -7.5 26.001l1 13c4.66699 -6.66699 11 -10 19 -10c28.667 0 86 52 172 156c11.333 96.667 14.333 161 9 193c-6.66699 37.333 -22.667 60.333 -48 69c-6 2.66699 -6 6.33398 0 11.001
c20.667 14.667 45.334 22 74.001 22c16 0 28.667 -3.33301 38 -10c28.667 -24 41.334 -74.667 38.001 -152c42.667 51.333 79.667 91.166 111 119.499s57.666 42.166 78.999 41.499c18 0 33 -7 45 -21c2.66699 -2.66699 2.66699 -5.66699 0 -9
c-0.666992 -1.33301 -1.66699 -1.66602 -3 -0.999023c-2 0.666992 -5 1 -9 1c-12 0 -26.167 -5.66699 -42.5 -17s-36.166 -29.5 -59.499 -54.5s-43.333 -47.333 -60 -67l-70 -84.5c-11.333 -82.667 -16.666 -131 -15.999 -145c0.666992 -26.667 7.66699 -40.334 21 -41.001
c18.667 -1.33301 52.167 23.834 100.5 75.501s94.5 116.167 138.5 193.5c5.33301 12 11.333 18 18 18z" />
    <glyph glyph-name="y" unicode="y" horiz-adv-x="443" 
d="M-181 -279c-40.667 0 -70.334 11.8398 -89.001 35.5068s-28 48.167 -28 73.5c0 16.667 3 25 9 25h1c16 -36.667 43 -55 81 -55c34.667 0 78.667 34 132 102s107 151.333 161 250c-82.667 -104.667 -147.667 -157 -195 -157c-34 0.666992 -51 25 -51 73
c0 43.333 13.667 99.666 41 168.999s57.5 129.666 90.5 180.999s57.833 77 74.5 77c21.333 0 37.666 -4.33301 48.999 -13s17 -18.667 17 -30c0 -3.33301 -0.333008 -6 -1 -8c-40 -44 -80.833 -106.667 -122.5 -188s-62.5 -139 -62.5 -173c0 -14.667 4.66699 -22 14 -22h1
c48.667 2 122.334 85.333 221.001 250c0.666992 0.666992 4.33398 7.16699 11.001 19.5l20.5 37c7 12.333 15.5 26.5 25.5 42.5s19.167 30 27.5 42s16.5 22.167 24.5 30.5s14.333 12.5 19 12.5h1c22 -1.33301 38.833 -6 50.5 -14s17.5 -16.667 17.5 -26
c0 -2.66699 -0.333008 -4.33398 -1 -5.00098c-31.333 -34.667 -64.666 -84.334 -99.999 -149.001s-67.833 -128.334 -97.5 -191.001s-61.334 -123.834 -95.001 -183.501s-71.5 -108.334 -113.5 -146.001s-86.333 -57.5 -133 -59.5z" />
    <glyph glyph-name="z" unicode="z" horiz-adv-x="436" 
d="M537 329c6 6.66699 11.9951 10 17.9951 10c7.33301 0 12.333 -3.16699 15 -9.5s1.33398 -14.5 -3.99902 -24.5c-32.667 -57.333 -66.167 -103.666 -100.5 -138.999s-76.166 -62.666 -125.499 -81.999c-14 -40.667 -47.333 -78.667 -100 -114s-102.334 -53 -149.001 -53
h-9h-3c-19.333 0 -35.333 4.66699 -48 14s-18 20 -16 32c1.33301 10.667 6 20.167 14 28.5s20.167 15.833 36.5 22.5s32.5 12.5 48.5 17.5l64 20c26.667 8.33301 50 16.166 70 23.499c-6 3.33301 -18.667 5 -38 5c-24 0 -50 -1.66699 -78 -5h-2
c-10.667 0 -24 4.83301 -40 14.5s-23.333 20.167 -22 31.5c4 8.66699 19 23.5 45 44.5l84 66.5c30 23.333 61.333 53.5 94 90.5s57.334 73.833 74.001 110.5c-10 3.33301 -23 5 -39 5s-31.5 -2 -46.5 -6s-29.833 -10.5 -44.5 -19.5s-26 -22.667 -34 -41
s-10.667 -39.833 -8 -64.5h-16c-34 0 -58.667 8.33301 -74 25s-18.333 42 -9 76c11.333 23.333 30.5 41.5 57.5 54.5s52.333 20.833 76 23.5s55.667 4.66699 96 6s66.833 2.66602 79.5 3.99902h5c20.667 0 39.834 -8.66699 57.501 -26s21.5 -37 11.5 -59
c-12 -25.333 -30.667 -52.5 -56 -81.5s-52.166 -54.833 -80.499 -77.5s-55.666 -43.5 -81.999 -62.5s-48.166 -33.833 -65.499 -44.5l-26 -16c49.333 18 89.666 27 120.999 27c34 0 52.667 -11.667 56 -35c64 28 128.333 97.333 193 208zM51.9951 -29
c-4.66699 -6.66699 -2.33105 -10 7.00195 -10c16.667 0 45.667 9 87 27s68.333 34 81 48l-52 -16l-47 -14c-11.333 -3.33301 -22.833 -7 -34.5 -11s-20.834 -8 -27.501 -12s-11.334 -8 -14.001 -12z" />
    <glyph glyph-name="braceleft" unicode="{" horiz-adv-x="371" 
d="M0 56c0 40 20.6631 103.999 61.9961 191.999c33.333 76 50 136 50 180c0 19.333 -3.66699 34 -11 44c14 6 27 14.5 39 25.5s24.333 26.667 37 47s22.167 36.333 28.5 48s16.5 31.5 30.5 59.5l36 69.5c8.66699 16.333 20.334 36 35.001 59s27.834 40.333 39.501 52
s25.334 22 41.001 31s31.5 13.5 47.5 13.5c34 0 71.667 -17.667 113 -53c-12 1.33301 -20 2 -24 2c-10 0 -19.5 -1.16699 -28.5 -3.5s-16.833 -4.66602 -23.5 -6.99902s-13.5 -7.16602 -20.5 -14.499l-16.5 -17.5c-4 -4.33301 -9.66699 -12.333 -17 -24
s-12.5 -20.334 -15.5 -26.001l-17 -33l-17.5 -34.5c-21.333 -40.667 -38.166 -71.5 -50.499 -92.5s-29.666 -44.167 -51.999 -69.5s-45.166 -43.333 -68.499 -54c13.333 -18 20.666 -39.667 21.999 -65v-7c0 -44.667 -24.333 -120.667 -73 -228
c-30 -63.333 -45 -121.333 -45 -174c0 -10 0.333008 -17 1 -21h-6c-26.667 0 -49.334 10 -68.001 30s-28 43.667 -28 71z" />
    <glyph glyph-name="bar" unicode="|" horiz-adv-x="484" 
d="M375 1090l2 2c0 -0.666992 -0.333008 -1.33398 -1 -2.00098c20 8 42.667 12 68 12c22 0 36.667 -6.33301 44 -19c0 -0.666992 0.333008 -1.5 1 -2.5s1 -1.83301 1 -2.5c0 -1.33301 -19.833 -58.166 -59.5 -170.499l-151.5 -437.5
c-61.333 -179.333 -112.333 -335.666 -153 -468.999l-4 -1c-4.66699 0 -9 0.333008 -13 1c-41.333 14 -66.333 38.333 -75 73c-1.33301 6.66699 -2.33301 13.667 -3 21c-1.33301 7.33301 -1.33301 15 0 23c9.33301 45.333 62.5 202.166 159.5 470.499
s158.5 435.5 184.5 501.5z" />
    <glyph glyph-name="braceright" unicode="}" horiz-adv-x="509" 
d="M549 770c0 -39.333 -20.665 -103.667 -61.998 -193c-33.333 -76 -50 -136 -50 -180c0 -19.333 3.66699 -33.666 11 -42.999l-3 -2c-16.667 -6.66699 -33.5 -20 -50.5 -40s-29.167 -36.667 -36.5 -50s-20 -38 -38 -74c-3.33301 -6.66699 -6 -11.667 -8 -15
c-19.333 -38 -34.5 -66.667 -45.5 -86s-25.333 -41.666 -43 -66.999s-35.5 -43.5 -53.5 -54.5s-37 -16.5 -57 -16.5c-35.333 0 -73 17.333 -113 52c3.33301 0 7.66602 -0.166992 12.999 -0.5s9 -0.5 11 -0.5c10 0 19.5 1.16699 28.5 3.5s16.833 4.66602 23.5 6.99902
s13.5 7.16602 20.5 14.499l17 17.5c4.33301 4.33301 9.83301 12.333 16.5 24l15 26c3.33301 5.66699 9 16.334 17 32.001l18 34.5c21.333 40 38.166 70.667 50.499 92s29.666 44.5 51.999 69.5s45.5 42.833 69.5 53.5c-14.667 18.667 -22 40.667 -22 66v9
c0 46 24 121.333 72 226c30.667 67.333 46 125.333 46 174c0 5.33301 -0.666992 12.666 -2 21.999h7c26.667 0 49.334 -10.167 68.001 -30.5s28 -43.833 28 -70.5z" />
    <glyph glyph-name="asciitilde" unicode="~" horiz-adv-x="440" 
d="M83 361c14.667 0 41.001 -6.33301 79.001 -19c65.333 -22.667 108.333 -34 129 -34c38 0 63.333 19.667 76 59c35.333 -14.667 53 -35.667 53 -63c0 -25.333 -11 -44.833 -33 -58.5s-46.333 -20.5 -73 -20.5c-24.667 0 -60.667 7.66699 -108 23
c-22.667 8 -44.667 12 -66 12c-36.667 0 -67.334 -14.333 -92.001 -43c-32 9.33301 -48 29.333 -48 60c-0 18 5.83301 35 17.5 51s26.5 26.333 44.5 31c9.33301 1.33301 16.333 2 21 2z" />
    <glyph glyph-name="Din Studio" unicode="&#xe012;" horiz-adv-x="886" 
d="M701 222c5.33301 0.666992 13.001 1 23.001 1c47.333 0 85 -11.167 113 -33.5s39.667 -47.833 35 -76.5s-26 -51.667 -64 -69c-0.666992 -0.666992 -2 -1 -4 -1c-1.33301 0 -2.5 0.666992 -3.5 2s-1.16699 2.66602 -0.5 3.99902c12.667 21.333 10.834 38.5 -5.49902 51.5
s-44.5 19.5 -84.5 19.5h-4c-57.333 -0.666992 -144 -18.5 -260 -53.5s-190.667 -54.833 -224 -59.5c-26 -4 -50 -6 -72 -6c-100 0 -150 44.333 -150 133c0 36.667 8 76.834 24 120.501s36.5 84 61.5 121s54.833 67.833 89.5 92.5s68.667 37 102 37c66 0 99 -33.667 99 -101
c0 -52 -21.333 -101.833 -64 -149.5s-89 -71.5 -139 -71.5c-21.333 0 -40.333 4.66699 -57 14c-8.66699 -25.333 -13.834 -48.833 -15.501 -70.5s2.5 -40.667 12.5 -57s26.333 -24.5 49 -24.5h6c36 0 77 8.5 123 25.5s88.333 35.833 127 56.5s84.167 40.667 136.5 60
s101.166 31 146.499 35zM308.001 453c-16.667 0.666992 -44.5 -20 -83.5 -62s-64.5 -81.333 -76.5 -118c12 -10 25.333 -15 40 -15c33.333 0 67 23 101 69c29.333 40.667 43 74.667 41 102c-0.666992 15.333 -8 23.333 -22 24z" />
    <glyph glyph-name="Miracle" unicode="&#xe032;" horiz-adv-x="232" 
d="M-294 754c51.333 78.667 112.666 118.001 183.999 118.001c38 0 68 -11 90 -33s26.333 -44.667 13 -68c-13.333 -24 -35.666 -42.333 -66.999 -55s-66.666 -19 -105.999 -19c-2.66699 0 -6.33398 0.166992 -11.001 0.5s-8.33398 0.5 -11.001 0.5
c-71.333 -102.667 -140.833 -221 -208.5 -355s-101.5 -222 -101.5 -264c0 -14 4.33301 -21 13 -21c52.667 0.666992 131.667 92 237 274c5.33301 8 10.333 12 15 12c5.33301 0 8 -5 8 -15c0 -6.66699 -1 -11.667 -3 -15c-14.667 -27.333 -33.167 -57.166 -55.5 -89.499
s-47.666 -66 -75.999 -101s-58 -64.167 -89 -87.5s-58.833 -35 -83.5 -35c-36 0 -54 23 -54 69c0 70 36.667 180.333 110 331s131.333 256.667 174 318c-26.667 4.66699 -76.667 19 -150 43s-151.166 47.5 -233.499 70.5s-152.833 36.833 -211.5 41.5
c-6 0.666992 -15 1 -27 1c-40.667 0 -73.5 -7.5 -98.5 -22.5s-40.333 -30.833 -46 -47.5s-5.5 -30.667 0.5 -42c-27.333 7.33301 -50.833 22.666 -70.5 45.999s-28.834 46.333 -27.501 69c2 32 16.167 56.833 42.5 74.5s63.166 26.5 110.499 26.5c15.333 0 31.333 -1 48 -3
c56.667 -6 122.834 -23.5 198.501 -52.5l244.5 -95.5c87.333 -34.667 168 -59.334 242 -74.001zM-47 793.001c4 6 4.16699 12.833 0.5 20.5s-10.167 11.167 -19.5 10.5c-25.333 1.33301 -60.666 -27 -105.999 -85c1.33301 0 3.66602 -0.166992 6.99902 -0.5s6 -0.5 8 -0.5
c26 0 48.833 5.16699 68.5 15.5s33.5 23.5 41.5 39.5z" />
    <glyph glyph-name="nonmarkingreturn" horiz-adv-x="333" 
 />
    <glyph glyph-name="1.000" horiz-adv-x="250" 
 />
    </font>
</defs>
</svg>
